<svg width="203" height="100" viewBox="0 0 203 100" fill="none" xmlns="http://www.w3.org/2000/svg">
<g clip-path="url(#clip0_833_555)">
<path d="M191.501 43.3081C191.447 43.2898 191.428 43.1983 191.355 43.1068C191.483 43.0702 191.593 43.0519 191.702 43.0336C192.122 42.9604 192.451 42.7408 192.396 42.2651C192.341 41.7893 191.976 41.6429 191.538 41.6429C191.319 41.6429 191.081 41.6429 190.862 41.6429C189.712 41.6429 189.694 41.6429 189.274 40.5817C188.781 39.3191 187.996 38.4042 186.535 38.3859C184.235 38.3493 181.934 38.3493 179.634 38.3859C178.52 38.4042 177.534 38.9532 177.224 39.9778C176.785 41.4234 175.946 41.8808 174.576 41.6429C174.558 41.6429 174.521 41.6429 174.503 41.6429C174.029 41.5881 173.809 41.7527 173.809 42.2834C173.809 42.7957 173.901 43.0885 174.485 43.0336C174.613 43.0153 174.741 43.0702 174.96 43.1251C174.722 43.3081 174.576 43.4544 174.412 43.5459C172.458 44.6072 172.805 47.3336 173.663 48.5778C173.992 49.0719 174.175 49.511 174.138 50.0783C174.12 50.3527 174.12 50.6272 174.138 50.9017C174.156 51.4689 174.43 51.7983 175.033 51.7983C175.8 51.7983 176.585 51.7983 177.351 51.7983C177.844 51.7983 178.118 51.5604 178.137 51.0481C178.137 50.8651 178.155 50.7004 178.155 50.554C181.478 50.554 184.746 50.554 188.032 50.554C188.233 51.78 188.233 51.78 189.603 51.7983C189.986 51.7983 190.369 51.7983 190.771 51.7983C192.031 51.7983 192.122 51.7251 192.086 50.4991C192.067 49.7306 192.104 49.017 192.688 48.4132C192.834 48.2668 192.98 48.0106 192.98 47.8093C192.98 46.1625 193.492 44.3327 191.501 43.3081ZM178.009 39.8132C178.283 39.4289 178.958 39.1361 179.469 39.1178C181.879 39.0446 184.308 39.0812 186.718 39.0812C187.576 39.0812 188.178 39.5021 188.489 40.3255C188.744 41.0025 189.018 41.6612 189.31 42.4298C185.093 42.0089 180.985 42.0089 176.694 42.5212C177.169 41.5149 177.461 40.5817 178.009 39.8132ZM177.388 47.7544C177.132 47.8093 176.84 47.8093 176.585 47.8276V47.8093C176.493 47.8093 176.402 47.8093 176.311 47.8093C175.69 47.7544 175.051 47.7178 174.85 46.9676C174.631 46.1991 174.905 45.4123 175.544 44.9732C176.146 44.5706 176.858 44.5889 177.443 45.083C177.68 45.2842 177.917 45.5221 178.118 45.76C178.776 46.62 178.465 47.5166 177.388 47.7544ZM186.353 49.2915C184.18 49.2915 181.989 49.2915 179.835 49.2915C179.798 49.2366 179.762 49.2183 179.762 49.2C179.561 47.4251 179.561 47.4251 181.332 47.4251C182.993 47.4251 184.655 47.4251 186.371 47.4251C186.353 48.0655 186.353 48.651 186.353 49.2915ZM190.205 47.7727C189.986 47.8093 189.749 47.7727 189.53 47.7727V47.791C189.42 47.791 189.292 47.8276 189.183 47.791C188.726 47.6264 188.124 47.5715 187.886 47.2421C187.521 46.7481 187.759 46.1076 188.124 45.5953C188.598 44.9549 189.237 44.5523 190.059 44.6987C190.789 44.8451 191.228 45.3391 191.374 46.0893C191.556 46.9676 191.1 47.6264 190.205 47.7727ZM115.293 71.5417L101.197 53.3353C106.273 51.5238 109.925 46.6566 109.925 40.9293C109.925 39.74 109.76 38.5872 109.468 37.4893C108.336 33.2625 105.159 29.8591 101.051 28.4685C99.7003 28.011 98.2945 27.8097 96.8704 27.8097H80V71.7247H89.6402V54.2136L103.206 71.7247H115.42L115.366 71.6698H125.152V27.7548H115.293V71.5417ZM96.0305 46.6566C95.428 46.9127 94.7707 47.0774 94.0769 47.114V47.1506H89.6402V35.8059H93.803C95.3549 35.8059 96.7608 36.4463 97.7833 37.471C98.7874 38.4957 99.4265 39.9046 99.4265 41.46C99.4265 43.7838 98.0206 45.7783 96.0305 46.6566ZM162.855 44.8085C162.453 43.0702 161.869 41.3868 161.065 39.8315C161.011 39.7217 160.956 39.6119 160.901 39.5021C160.901 39.5021 160.901 39.4838 160.883 39.4838C160.828 39.374 160.773 39.2642 160.7 39.1544C160.645 39.0446 160.572 38.9349 160.518 38.8251C160.463 38.7153 160.39 38.6238 160.335 38.514C160.28 38.4042 160.207 38.3127 160.152 38.2029C160.116 38.1481 160.079 38.0749 160.043 38.02C160.025 37.9834 159.988 37.9285 159.97 37.8919L159.952 37.8736C159.933 37.8553 159.933 37.837 159.915 37.8187C159.915 37.8187 159.915 37.8004 159.897 37.8004C159.897 37.8004 159.897 37.8004 159.897 37.7821C159.824 37.6723 159.751 37.5442 159.659 37.4344C159.568 37.3063 159.495 37.1783 159.404 37.0685C159.313 36.9404 159.221 36.8306 159.13 36.7025C158.984 36.5195 158.838 36.3366 158.692 36.1536C158.637 36.0804 158.582 36.0255 158.528 35.9523C158.436 35.8425 158.327 35.7144 158.217 35.6046C158.126 35.4949 158.035 35.4034 157.943 35.2936C157.87 35.2021 157.779 35.1106 157.706 35.0374C157.669 35.0008 157.651 34.9642 157.615 34.9459C157.56 34.8727 157.487 34.8178 157.414 34.7446C157.359 34.6897 157.304 34.6349 157.268 34.58C157.213 34.5251 157.158 34.4519 157.085 34.397C157.03 34.3421 156.994 34.3055 156.939 34.2506C156.866 34.1774 156.793 34.1225 156.738 34.0493C156.647 33.9578 156.537 33.8663 156.446 33.7749C156.355 33.7017 156.282 33.6285 156.19 33.537C156.026 33.3906 155.862 33.2442 155.698 33.1161C155.57 33.0063 155.442 32.8966 155.314 32.7868C154.839 32.3842 154.328 32.0183 153.817 31.6523C150.567 29.3468 146.897 28.1208 142.99 27.9561C141.584 27.9012 140.178 27.8646 138.772 27.8646C138.718 27.8646 138.645 27.8829 138.59 27.8829V27.8646C135.559 27.8463 132.528 27.9195 129.516 27.9012C128.895 27.9012 128.749 28.0842 128.749 28.688C128.749 29.7127 128.749 30.7557 128.749 31.7804C128.749 33.3906 128.749 35.0191 128.749 36.6293C128.749 38.5872 128.749 40.5268 128.749 42.4846C128.749 47.2604 128.749 52.0544 128.749 56.8302C128.749 58.7881 128.749 60.7276 128.749 62.6855C128.749 64.2957 128.749 65.9242 128.749 67.5345C128.749 68.6323 128.749 69.7302 128.749 70.8098C128.749 71.3038 128.877 71.5051 129.223 71.56H138.608V71.4319C139.065 71.4868 139.521 71.5417 139.977 71.56H142.077C142.734 71.56 143.41 71.5417 144.049 71.4502C146.733 71.0477 149.325 70.334 151.736 69.0166C153.032 68.3213 154.219 67.5345 155.332 66.6379C155.698 66.3451 156.044 66.034 156.391 65.723C156.464 65.6498 156.537 65.5949 156.61 65.5217C159.093 63.143 161.029 60.1787 162.179 56.8485C162.964 54.5979 163.384 52.1642 163.384 49.6391C163.384 49.3464 163.384 49.0719 163.366 48.7791C163.329 47.4434 163.147 46.1076 162.855 44.8085ZM152.63 49.877C152.612 51.2127 152.393 52.4753 152.009 53.683C151.425 55.7506 150.421 57.617 148.778 59.2455C147.153 60.8557 145.254 61.917 143.063 62.4111C142.132 62.6123 141.164 62.6489 140.197 62.7038C139.85 62.7221 139.484 62.7404 139.138 62.777C138.955 62.7953 138.845 62.7587 138.772 62.7038H138.59V36.6476H139.612C140.215 36.6476 140.799 36.6842 141.365 36.7574C143.666 36.9587 145.802 37.6906 147.701 39.2093C149.91 40.9659 151.425 43.1617 152.082 45.943C152.082 45.943 152.082 45.943 152.082 45.9613C152.429 47.1506 152.63 48.3949 152.63 49.694C152.63 49.7489 152.63 49.8038 152.63 49.877ZM196.961 31.2863C182.938 17.1421 169.172 31.2863 169.172 31.2863C169.172 31.2863 160.262 39.0812 164.973 52.8596C169.519 66.1621 183.066 75 183.066 75C195.116 67.5528 211.804 46.254 196.961 31.2863ZM183.066 60.7825C174.412 60.7825 167.401 53.7562 167.401 45.083C167.401 36.4098 174.412 29.3834 183.066 29.3834C191.72 29.3834 198.732 36.4098 198.732 45.083C198.732 53.7562 191.72 60.7825 183.066 60.7825Z" fill="#009DFF"/>
</g>
<defs>
<clipPath id="clip0_833_555">
<rect width="202.807" height="100" fill="white"/>
</clipPath>
</defs>
</svg>
