<svg width="64" height="64" viewBox="0 0 64 64" fill="none" xmlns="http://www.w3.org/2000/svg">
<path d="M32 20.2669C36.9706 20.2669 41 15.9688 41 10.6669C41 5.36496 36.9706 1.06689 32 1.06689C27.0294 1.06689 23 5.36496 23 10.6669C23 15.9688 27.0294 20.2669 32 20.2669Z" stroke="black" stroke-width="2" stroke-linecap="round" stroke-linejoin="round"/>
<path d="M28 10.1333L31 13.3333L36 8" stroke="black" stroke-width="2" stroke-linecap="round" stroke-linejoin="round"/>
<path d="M23.6599 61.931C22.7399 60.7364 22.8899 58.9657 23.9799 57.963L26.7499 55.435C27.8399 54.4324 29.4699 54.5924 30.3899 55.787C31.3099 56.9817 31.1599 58.7524 30.0699 59.755L27.2999 62.283C26.2099 63.2857 24.5799 63.1257 23.6599 61.931Z" stroke="black" stroke-width="2" stroke-linecap="round" stroke-linejoin="round"/>
<path d="M20.3399 57.6219C19.4199 56.4273 19.5699 54.6566 20.6599 53.6539L25.0099 49.6753C26.0999 48.6726 27.7299 48.8326 28.6499 50.0273C29.5699 51.2219 29.4199 52.9926 28.3299 53.9953L23.9799 57.9739C22.8899 58.9766 21.2599 58.8166 20.3399 57.6219Z" stroke="black" stroke-width="2" stroke-linecap="round" stroke-linejoin="round"/>
<path d="M17.0198 53.3124C16.0998 52.1177 16.2498 50.347 17.3398 49.3444L21.6898 45.3657C22.7798 44.363 24.4098 44.523 25.3298 45.7177C26.2498 46.9124 26.0998 48.683 25.0098 49.6857L20.6598 53.6644C19.5698 54.667 17.9398 54.507 17.0198 53.3124Z" stroke="black" stroke-width="2" stroke-linecap="round" stroke-linejoin="round"/>
<path d="M13.7 48.9926C12.78 47.7979 12.93 46.0272 14.02 45.0246L16.79 42.4966C17.88 41.4939 19.51 41.6539 20.43 42.8486C21.35 44.0432 21.2 45.8139 20.11 46.8166L17.34 49.3446C16.25 50.3472 14.62 50.1872 13.7 48.9926Z" stroke="black" stroke-width="2" stroke-linecap="round" stroke-linejoin="round"/>
<path d="M49.4399 28.1712C48.2799 28.4592 46.9199 28.4912 46.1799 28.2672C44.7199 27.8192 44.6299 27.9045 43.2599 27.1792L39.9499 25.2912C39.2999 24.9178 38.5699 24.7472 37.8299 24.7792L31.9999 25.0885C31.1599 25.1312 30.3799 25.5472 29.8199 26.2298L23.7699 33.7285C22.9699 34.5285 22.9099 35.8832 23.6399 36.7578C25.2099 38.6352 27.8899 38.7738 29.6099 37.0672L32.8299 33.8885C33.1699 33.5472 33.3999 33.0992 33.4799 32.5978L33.6299 31.6485" stroke="black" stroke-width="2" stroke-linecap="round" stroke-linejoin="round"/>
<path d="M57.68 46.4646L61.68 44.8752C62.72 44.4592 63.25 43.2112 62.88 42.0806L57.18 25.0246C56.8 23.8939 55.65 23.3072 54.62 23.7232L50.62 25.3126C49.58 25.7286 49.05 26.9766 49.42 28.1072L55.12 45.1632C55.5 46.2939 56.65 46.8806 57.68 46.4646Z" stroke="black" stroke-width="2" stroke-linecap="round" stroke-linejoin="round"/>
<path d="M55.09 45.0991L50.03 48.4271" stroke="black" stroke-width="2" stroke-linecap="round" stroke-linejoin="round"/>
<path d="M6.31992 45.2697L2.31992 43.6804C1.27992 43.2644 0.749917 42.0164 1.11992 40.8857L6.81992 23.8297C7.19992 22.6991 8.34992 22.1124 9.37992 22.5284L13.3799 24.1177C14.4199 24.5337 14.9499 25.7817 14.5799 26.9124L8.87992 43.9684C8.49992 45.0991 7.34992 45.6857 6.31992 45.2697Z" stroke="black" stroke-width="2" stroke-linecap="round" stroke-linejoin="round"/>
<path d="M14.5598 26.9766C14.5598 26.9766 19.7698 28.9393 23.7398 26.9126" stroke="black" stroke-width="2" stroke-linecap="round" stroke-linejoin="round"/>
<path d="M36.8298 35.5312L49.1498 46.7846C50.2398 47.7872 50.3898 49.5686 49.4698 50.7419C48.9498 51.4032 48.2198 51.7552 47.4898 51.7552C46.8998 51.7552 46.3098 51.5313 45.8398 51.0939L42.2798 47.8406" stroke="black" stroke-width="2" stroke-linecap="round" stroke-linejoin="round"/>
<path d="M42.2699 47.8403L45.0399 50.3683C46.1299 51.371 46.2699 53.1417 45.3599 54.3363C44.4399 55.531 42.8199 55.6803 41.7199 54.6883L38.1599 51.435" stroke="black" stroke-width="2" stroke-linecap="round" stroke-linejoin="round"/>
<path d="M38.1598 51.4243L40.9298 53.9523C42.0198 54.955 42.1598 56.7256 41.2498 57.9203C40.3298 59.115 38.7098 59.2643 37.6098 58.2723L34.0498 55.019" stroke="black" stroke-width="2" stroke-linecap="round" stroke-linejoin="round"/>
<path d="M33.75 62.0376C34.18 62.3683 34.68 62.5176 35.16 62.5176C35.9 62.5176 36.63 62.1656 37.14 61.515C38.06 60.3203 37.91 58.539 36.82 57.547L34.9 55.787L34.05 55.0083" stroke="black" stroke-width="2" stroke-linecap="round" stroke-linejoin="round"/>
<path d="M13.3299 46.0163L8.90991 43.9043" stroke="black" stroke-width="2" stroke-linecap="round" stroke-linejoin="round"/>
</svg>
