<svg width="64" height="64" viewBox="0 0 64 64" fill="none" xmlns="http://www.w3.org/2000/svg">
<path d="M37.5173 32.0001L39.4925 26.6401L52.6456 14.7201L55.9339 11.7401C57.0263 10.7501 58.7918 10.7501 59.8842 11.7401C60.9766 12.7301 60.9766 14.3301 59.8842 15.3201L43.4429 30.2201L37.5284 32.0101L37.5173 32.0001Z" stroke="black" stroke-width="2" stroke-linecap="round" stroke-linejoin="round"/>
<path d="M56.9711 17.6701L53.2966 14.1201" stroke="black" stroke-width="2" stroke-linecap="round" stroke-linejoin="round"/>
<path d="M7.72421 54H3.31041C2.09662 54 1.10352 53.1 1.10352 52V10C1.10352 8.9 2.09662 8 3.31041 8H7.72421" stroke="black" stroke-width="2" stroke-linecap="round" stroke-linejoin="round"/>
<path d="M47.4482 38.31V32.23" stroke="black" stroke-width="2" stroke-linecap="round" stroke-linejoin="round"/>
<path d="M40.8276 8H45.2414C46.4552 8 47.4483 8.9 47.4483 10V13.77" stroke="black" stroke-width="2" stroke-linecap="round" stroke-linejoin="round"/>
<path d="M34.2069 5H30.8966V3C30.8966 1.9 29.9035 1 28.6897 1H19.8621C18.6483 1 17.6552 1.9 17.6552 3V5H14.3448C13.131 5 12.1379 5.9 12.1379 7V10H36.4138V7C36.4138 5.9 35.4207 5 34.2069 5Z" stroke="black" stroke-width="2" stroke-linecap="round" stroke-linejoin="round"/>
<path d="M15.4482 19H33.1034" stroke="black" stroke-width="2" stroke-linecap="round" stroke-linejoin="round"/>
<path d="M35.0677 26H9.93115" stroke="black" stroke-width="2" stroke-linecap="round" stroke-linejoin="round"/>
<path d="M32.4967 33H9.93115" stroke="black" stroke-width="2" stroke-linecap="round" stroke-linejoin="round"/>
<path d="M17.9422 40H9.93115" stroke="black" stroke-width="2" stroke-linecap="round" stroke-linejoin="round"/>
<path d="M27.2883 58.8798C27.2883 61.1598 25.269 62.9998 22.7862 62.9998C20.3035 62.9998 18.2842 61.1498 18.2842 58.8798C18.2842 56.6098 20.3035 54.7598 22.7862 54.7598C25.269 54.7598 27.2883 56.6098 27.2883 58.8798Z" stroke="black" stroke-width="2" stroke-linecap="round" stroke-linejoin="round"/>
<path d="M56.7615 58.8798C56.7615 61.1598 54.7422 62.9998 52.2594 62.9998C49.7766 62.9998 47.7573 61.1498 47.7573 58.8798C47.7573 56.6098 49.7766 54.7598 52.2594 54.7598C54.7422 54.7598 56.7615 56.6098 56.7615 58.8798Z" stroke="black" stroke-width="2" stroke-linecap="round" stroke-linejoin="round"/>
<path d="M43.3436 59.25H31.6912" stroke="black" stroke-width="2" stroke-linecap="round" stroke-linejoin="round"/>
<path d="M13.9366 57.83C13.6166 57.72 13.3076 57.59 13.0207 57.46C12.469 57.21 12.1379 56.69 12.1379 56.13V53.25C12.1379 50.25 12.9545 49.5 12.9545 49.5V46.88C12.9545 46.22 13.44 45.62 14.1462 45.44L18.4828 44.3C18.6262 44.26 18.7476 44.22 18.869 44.15C19.6966 43.7 23.1945 41.81 26.0524 40.5C29.3297 39 32.6069 39 35.0566 39C37.5062 39 40.1766 39.42 41.9531 40.06C44.5683 41 49.2028 44.48 50.3504 45.51C50.5379 45.68 50.7366 45.79 50.9793 45.86L60.6566 48.82C61.9917 49.22 62.8966 50.46 62.8966 51.75V57.27C62.8966 57.98 62.3448 58.6 61.5835 58.74L61.1752 58.82" stroke="black" stroke-width="2" stroke-linecap="round" stroke-linejoin="round"/>
<path d="M23.1504 46.5H33.4235H44.8442" stroke="black" stroke-width="2" stroke-linecap="round" stroke-linejoin="round"/>
<path d="M33.4234 46.5L32.6731 43.04" stroke="black" stroke-width="2" stroke-linecap="round" stroke-linejoin="round"/>
<path d="M35.0566 50.25H37.5173" stroke="black" stroke-width="2" stroke-linecap="round" stroke-linejoin="round"/>
<path d="M13.2415 50H16.5518" stroke="black" stroke-width="2" stroke-linecap="round" stroke-linejoin="round"/>
<path d="M62.8967 53H60.5022C59.9173 53 59.3546 52.79 58.9463 52.41L58.4939 52" stroke="black" stroke-width="2" stroke-linecap="round" stroke-linejoin="round"/>
</svg>
