<svg width="25" height="24" viewBox="0 0 25 24" fill="none" xmlns="http://www.w3.org/2000/svg">
<path d="M2.5 12C2.5 8.22876 2.5 6.34315 3.67157 5.17157C4.84315 4 6.72876 4 10.5 4H14.5C18.2712 4 20.1569 4 21.3284 5.17157C22.5 6.34315 22.5 8.22876 22.5 12V14C22.5 17.7712 22.5 19.6569 21.3284 20.8284C20.1569 22 18.2712 22 14.5 22H10.5C6.72876 22 4.84315 22 3.67157 20.8284C2.5 19.6569 2.5 17.7712 2.5 14V12Z" stroke="#252525" stroke-width="1.5"/>
<path d="M7.5 4V2.5" stroke="#252525" stroke-width="1.5" stroke-linecap="round"/>
<path d="M17.5 4V2.5" stroke="#252525" stroke-width="1.5" stroke-linecap="round"/>
<path d="M9.5 14.5L11 13V17" stroke="#252525" stroke-width="1.5" stroke-linecap="round" stroke-linejoin="round"/>
<path d="M13.5 16V14C13.5 13.4477 13.9477 13 14.5 13C15.0523 13 15.5 13.4477 15.5 14V16C15.5 16.5523 15.0523 17 14.5 17C13.9477 17 13.5 16.5523 13.5 16Z" stroke="#252525" stroke-width="1.5" stroke-linecap="round"/>
<path d="M3 9H22" stroke="#252525" stroke-width="1.5" stroke-linecap="round"/>
</svg>
