<svg width="24" height="25" viewBox="0 0 24 25" fill="none" xmlns="http://www.w3.org/2000/svg">
<g clip-path="url(#clip0_1428_2347)">
<path d="M3 10.5V16.5" stroke="#8D8D8D" stroke-linecap="round" stroke-linejoin="round"/>
<path d="M12 5.5V8.5" stroke="#8D8D8D" stroke-linecap="round" stroke-linejoin="round"/>
<path d="M10 5.5H14" stroke="#8D8D8D" stroke-linecap="round" stroke-linejoin="round"/>
<path d="M5 13.5H3" stroke="#8D8D8D" stroke-linecap="round" stroke-linejoin="round"/>
<path d="M6 10.5H8L10 8.5H13.382C13.5677 8.5001 13.7496 8.55188 13.9075 8.64955C14.0654 8.74722 14.193 8.88692 14.276 9.053L15.724 11.947C15.807 12.1131 15.9346 12.2528 16.0925 12.3504C16.2504 12.4481 16.4323 12.4999 16.618 12.5H18V10.5H20C20.2652 10.5 20.5196 10.6054 20.7071 10.7929C20.8946 10.9804 21 11.2348 21 11.5V17.5C21 17.7652 20.8946 18.0196 20.7071 18.2071C20.5196 18.3946 20.2652 18.5 20 18.5H18V16.5H15V18.5C15 18.7652 14.8946 19.0196 14.7071 19.2071C14.5196 19.3946 14.2652 19.5 14 19.5H10.535C10.3704 19.5 10.2084 19.4594 10.0632 19.3818C9.91808 19.3042 9.79435 19.1919 9.703 19.055L8 16.5H6V10.5Z" stroke="#8D8D8D" stroke-linecap="round" stroke-linejoin="round"/>
</g>
<defs>
<clipPath id="clip0_1428_2347">
<rect width="24" height="24" fill="white" transform="translate(0 0.5)"/>
</clipPath>
</defs>
</svg>
