<svg width="65" height="21" viewBox="0 0 65 21" fill="none" xmlns="http://www.w3.org/2000/svg">
<g clip-path="url(#clip0_920_1782)">
<path d="M62.5067 12.8342L64.2822 14.0178C63.706 14.8666 62.3277 16.3228 59.9449 16.3228C56.9859 16.3228 54.7822 14.0334 54.7822 11.1211C54.7822 8.02193 57.0092 5.91943 59.6957 5.91943C62.3977 5.91943 63.7215 8.06856 64.1498 9.22881L64.3835 9.82068L57.422 12.7018C57.9515 13.7453 58.777 14.2748 59.9449 14.2748C61.113 14.2748 61.9227 13.6986 62.5067 12.8342ZM57.0482 10.9577L61.697 9.02643C61.44 8.38018 60.677 7.92081 59.7657 7.92081C58.6056 7.92081 56.9937 8.94868 57.0482 10.9577Z" fill="#FF302F"/>
<path d="M51.4258 0.616336H53.6683V15.8476H51.4258V0.616211V0.616336Z" fill="#20B15A"/>
<path d="M47.8905 6.32425H50.0553V15.5751C50.0553 19.414 47.7893 20.9947 45.1105 20.9947C42.5876 20.9947 41.0693 19.2972 40.5008 17.919L42.4864 17.0935C42.8445 17.9422 43.7089 18.9469 45.1105 18.9469C46.8314 18.9469 47.8905 17.88 47.8905 15.8866V15.1391H47.8126C47.2986 15.762 46.3175 16.3226 45.0716 16.3226C42.4708 16.3226 40.0879 14.0566 40.0879 11.1366C40.0879 8.20087 42.4708 5.91162 45.0716 5.91162C46.3098 5.91162 47.2986 6.4645 47.8126 7.07187H47.8905V6.32437V6.32425ZM48.0461 11.1366C48.0461 9.29887 46.8236 7.9595 45.2663 7.9595C43.6933 7.9595 42.3695 9.29887 42.3695 11.1366C42.3695 12.9509 43.6933 14.2669 45.2663 14.2669C46.8238 14.2747 48.0463 12.9509 48.0463 11.1366H48.0461Z" fill="#3686F7"/>
<path d="M27.7773 11.0976C27.7773 14.0956 25.4413 16.2992 22.5756 16.2992C19.7101 16.2992 17.374 14.0878 17.374 11.0976C17.374 8.08406 19.7101 5.88818 22.5756 5.88818C25.4413 5.88818 27.7773 8.08406 27.7773 11.0976ZM25.5035 11.0976C25.5035 9.22881 24.1485 7.94381 22.5756 7.94381C21.0028 7.94381 19.6478 9.22881 19.6478 11.0976C19.6478 12.9508 21.0028 14.2513 22.5756 14.2513C24.1486 14.2513 25.5035 12.9508 25.5035 11.0976Z" fill="#FF302F"/>
<path d="M39.1386 11.1211C39.1386 14.1191 36.8025 16.3227 33.937 16.3227C31.0714 16.3227 28.7354 14.1189 28.7354 11.1211C28.7354 8.10756 31.0714 5.91943 33.937 5.91943C36.8025 5.91943 39.1386 8.09981 39.1386 11.1211ZM36.857 11.1211C36.857 9.25231 35.5021 7.96731 33.9291 7.96731C32.3562 7.96731 31.0012 9.25231 31.0012 11.1211C31.0012 12.9743 32.3562 14.2748 33.9291 14.2748C35.5099 14.2748 36.857 12.9666 36.857 11.1211Z" fill="#FFBA40"/>
<path d="M8.82352 14.041C5.56077 14.041 3.00677 11.409 3.00677 8.14623C3.00677 4.8836 5.56077 2.2516 8.82352 2.2516C10.5834 2.2516 11.8681 2.9446 12.8181 3.83235L14.3834 2.26723C13.0596 0.997977 11.292 0.0322266 8.82352 0.0322266C4.3539 0.0323516 0.592773 3.67673 0.592773 8.14623C0.592773 12.616 4.3539 16.2602 8.82352 16.2602C11.2375 16.2602 13.0596 15.466 14.4846 13.9865C15.9485 12.5225 16.4002 10.4667 16.4002 8.80035C16.4002 8.2786 16.3379 7.74135 16.2678 7.34423H8.82352V9.50898H14.1264C13.9706 10.864 13.5424 11.7906 12.9116 12.4212C12.1485 13.1922 10.9416 14.041 8.82352 14.041Z" fill="#3686F7"/>
</g>
<defs>
<clipPath id="clip0_920_1782">
<rect width="64" height="21" fill="white" transform="translate(0.5)"/>
</clipPath>
</defs>
</svg>
