<svg width="16" height="17" viewBox="0 0 16 17" fill="none" xmlns="http://www.w3.org/2000/svg">
<path d="M7.43063 5.18168C7.68396 4.72723 7.81063 4.5 8 4.5C8.18937 4.5 8.31604 4.72722 8.56937 5.18167L8.63491 5.29925C8.70689 5.42839 8.74289 5.49296 8.79901 5.53556C8.85513 5.57817 8.92503 5.59398 9.06482 5.62561L9.19209 5.65441C9.68403 5.76571 9.93 5.82136 9.98852 6.00955C10.047 6.19773 9.87935 6.39381 9.54398 6.78598L9.45722 6.88744C9.36191 6.99889 9.31426 7.05461 9.29283 7.12354C9.27139 7.19248 9.27859 7.26682 9.293 7.41551L9.30612 7.55088C9.35682 8.07412 9.38218 8.33574 9.22897 8.45204C9.07576 8.56835 8.84546 8.46231 8.38487 8.25023L8.2657 8.19537C8.13481 8.1351 8.06937 8.10497 8 8.10497C7.93063 8.10497 7.86519 8.1351 7.7343 8.19537L7.61513 8.25023C7.15453 8.46231 6.92424 8.56835 6.77103 8.45204C6.61782 8.33574 6.64318 8.07412 6.69388 7.55088L6.707 7.41551C6.72141 7.26682 6.72861 7.19248 6.70717 7.12354C6.68574 7.05461 6.63809 6.99889 6.54278 6.88744L6.45602 6.78599C6.12065 6.39381 5.95296 6.19773 6.01148 6.00955C6.07 5.82136 6.31597 5.76571 6.80791 5.65441L6.93518 5.62561C7.07497 5.59398 7.14487 5.57817 7.20099 5.53556C7.25711 5.49296 7.29311 5.42839 7.36509 5.29925L7.43063 5.18168Z" stroke="#252525" stroke-width="1.5"/>
<path d="M12.6663 6.50016C12.6663 9.07749 10.577 11.1668 7.99967 11.1668C5.42235 11.1668 3.33301 9.07749 3.33301 6.50016C3.33301 3.92283 5.42235 1.8335 7.99967 1.8335C10.577 1.8335 12.6663 3.92283 12.6663 6.50016Z" stroke="#252525" stroke-width="1.5"/>
<path d="M7.99967 11.2119L5.48537 13.8152C5.12529 14.188 4.94525 14.3745 4.79279 14.439C4.44535 14.586 4.05995 14.4602 3.87719 14.1401C3.79699 13.9997 3.772 13.7463 3.72201 13.2396C3.69379 12.9536 3.67968 12.8105 3.63684 12.6907C3.54095 12.4225 3.33945 12.2139 3.08041 12.1146C2.9647 12.0702 2.82656 12.0556 2.55027 12.0264C2.06092 11.9747 1.81625 11.9488 1.6806 11.8657C1.37149 11.6765 1.24999 11.2775 1.39196 10.9177C1.45426 10.7599 1.6343 10.5734 1.99438 10.2006L3.63684 8.5" stroke="#252525" stroke-width="1.5"/>
<path d="M8.00032 11.2119L10.5146 13.8152C10.8747 14.188 11.0547 14.3745 11.2072 14.439C11.5546 14.586 11.94 14.4602 12.1228 14.1401C12.203 13.9997 12.228 13.7463 12.278 13.2396C12.3062 12.9536 12.3203 12.8105 12.3632 12.6907C12.4591 12.4225 12.6606 12.2139 12.9196 12.1146C13.0353 12.0702 13.1734 12.0556 13.4497 12.0264C13.9391 11.9747 14.1838 11.9488 14.3194 11.8657C14.6285 11.6765 14.75 11.2775 14.608 10.9177C14.5457 10.7599 14.3657 10.5734 14.0056 10.2006L12.3632 8.5" stroke="#252525" stroke-width="1.5"/>
</svg>
