<svg width="24" height="25" viewBox="0 0 24 25" fill="none" xmlns="http://www.w3.org/2000/svg">
<g clip-path="url(#clip0_1428_2338)">
<path d="M14 11.5H15C15.5304 11.5 16.0391 11.7107 16.4142 12.0858C16.7893 12.4609 17 12.9696 17 13.5V16.5C17 16.8978 17.158 17.2794 17.4393 17.5607C17.7206 17.842 18.1022 18 18.5 18C18.8978 18 19.2794 17.842 19.5607 17.5607C19.842 17.2794 20 16.8978 20 16.5V9.5L17 6.5" stroke="#8D8D8D" stroke-linecap="round" stroke-linejoin="round"/>
<path d="M4 20.5V6.5C4 5.96957 4.21071 5.46086 4.58579 5.08579C4.96086 4.71071 5.46957 4.5 6 4.5H12C12.5304 4.5 13.0391 4.71071 13.4142 5.08579C13.7893 5.46086 14 5.96957 14 6.5V20.5" stroke="#8D8D8D" stroke-linecap="round" stroke-linejoin="round"/>
<path d="M3 20.5H15" stroke="#8D8D8D" stroke-linecap="round" stroke-linejoin="round"/>
<path d="M18 7.5V8.5C18 8.76522 18.1054 9.01957 18.2929 9.20711C18.4804 9.39464 18.7348 9.5 19 9.5H20" stroke="#8D8D8D" stroke-linecap="round" stroke-linejoin="round"/>
<path d="M4 11.5H14" stroke="#8D8D8D" stroke-linecap="round" stroke-linejoin="round"/>
</g>
<defs>
<clipPath id="clip0_1428_2338">
<rect width="24" height="24" fill="white" transform="translate(0 0.5)"/>
</clipPath>
</defs>
</svg>
