<svg width="24" height="24" viewBox="0 0 24 24" fill="none" xmlns="http://www.w3.org/2000/svg">
<path d="M12 2V18M12 22V18M12 18L15 21M12 18L9 21M15 3L12 6L9 3" stroke="#252525" stroke-width="1.5" stroke-linecap="round"/>
<path d="M3.34003 6.99993L6.80413 8.99993M6.80413 8.99993L17.1964 14.9999M6.80413 8.99993L5.70605 4.90186M6.80413 8.99993L2.70605 10.098M17.1964 14.9999L20.6605 16.9999M17.1964 14.9999L21.2945 13.9019M17.1964 14.9999L18.2945 19.098" stroke="#252525" stroke-width="1.5" stroke-linecap="round"/>
<path d="M20.6605 6.99993L17.1964 8.99993M17.1964 8.99993L6.80413 14.9999M17.1964 8.99993L18.2945 4.90186M17.1964 8.99993L21.2945 10.098M6.80413 14.9999L3.34003 16.9999M6.80413 14.9999L2.70605 13.9019M6.80413 14.9999L5.70605 19.098" stroke="#252525" stroke-width="1.5" stroke-linecap="round"/>
</svg>
