<svg width="40" height="40" viewBox="0 0 40 40" fill="none" xmlns="http://www.w3.org/2000/svg">
<rect width="40" height="40" rx="20" fill="url(#paint0_linear_1128_4040)"/>
<path d="M19.999 15.377C18.7726 15.377 17.5965 15.8641 16.7293 16.7313C15.8622 17.5985 15.375 18.7746 15.375 20.001C15.375 21.2273 15.8622 22.4034 16.7293 23.2706C17.5965 24.1378 18.7726 24.625 19.999 24.625C21.2254 24.625 22.4015 24.1378 23.2687 23.2706C24.1358 22.4034 24.623 21.2273 24.623 20.001C24.623 18.7746 24.1358 17.5985 23.2687 16.7313C22.4015 15.8641 21.2254 15.377 19.999 15.377ZM19.999 23.004C19.2023 23.004 18.4382 22.6875 17.8749 22.1241C17.3115 21.5607 16.995 20.7967 16.995 20C16.995 19.2032 17.3115 18.4392 17.8749 17.8758C18.4382 17.3124 19.2023 16.996 19.999 16.996C20.7957 16.996 21.5598 17.3124 22.1231 17.8758C22.6865 18.4392 23.003 19.2032 23.003 20C23.003 20.7967 22.6865 21.5607 22.1231 22.1241C21.5598 22.6875 20.7957 23.004 19.999 23.004Z" fill="white"/>
<path d="M24.806 16.285C25.4014 16.285 25.884 15.8024 25.884 15.207C25.884 14.6117 25.4014 14.129 24.806 14.129C24.2107 14.129 23.728 14.6117 23.728 15.207C23.728 15.8024 24.2107 16.285 24.806 16.285Z" fill="white"/>
<path d="M28.533 14.111C28.3015 13.5132 27.9477 12.9703 27.4943 12.5171C27.0409 12.0638 26.4979 11.7103 25.9 11.479C25.2003 11.2164 24.4611 11.0743 23.714 11.059C22.751 11.017 22.446 11.005 20.004 11.005C17.562 11.005 17.249 11.005 16.294 11.059C15.5473 11.0736 14.8087 11.2156 14.11 11.479C13.5119 11.71 12.9687 12.0635 12.5153 12.5167C12.0619 12.97 11.7082 13.513 11.477 14.111C11.2143 14.8106 11.0726 15.5498 11.058 16.297C11.015 17.259 11.002 17.564 11.002 20.007C11.002 22.449 11.002 22.76 11.058 23.717C11.073 24.465 11.214 25.203 11.477 25.904C11.7088 26.5018 12.0628 27.0446 12.5164 27.4978C12.9699 27.951 13.513 28.3046 14.111 28.536C14.8084 28.8092 15.5473 28.9614 16.296 28.986C17.259 29.028 17.564 29.041 20.006 29.041C22.448 29.041 22.761 29.041 23.716 28.986C24.4631 28.9708 25.2022 28.8291 25.902 28.567C26.4997 28.3352 27.0426 27.9813 27.4959 27.528C27.9493 27.0746 28.3031 26.5318 28.535 25.934C28.798 25.234 28.939 24.496 28.954 23.748C28.997 22.786 29.01 22.481 29.01 20.038C29.01 17.595 29.01 17.285 28.954 16.328C28.9423 15.5703 28.7999 14.8203 28.533 14.111ZM27.315 23.643C27.3085 24.2193 27.2033 24.7902 27.004 25.331C26.8538 25.7199 26.6239 26.073 26.329 26.3677C26.0342 26.6624 25.6809 26.8921 25.292 27.042C24.7572 27.2405 24.1923 27.3456 23.622 27.353C22.672 27.397 22.404 27.408 19.968 27.408C17.53 27.408 17.281 27.408 16.313 27.353C15.7429 27.346 15.1783 27.2408 14.644 27.042C14.2536 26.893 13.899 26.6637 13.6028 26.369C13.3067 26.0742 13.0758 25.7206 12.925 25.331C12.7284 24.7961 12.6233 24.2318 12.614 23.662C12.571 22.712 12.561 22.444 12.561 20.008C12.561 17.571 12.561 17.322 12.614 16.353C12.6204 15.777 12.7256 15.2064 12.925 14.666C13.23 13.877 13.855 13.256 14.644 12.954C15.1785 12.7561 15.743 12.651 16.313 12.643C17.264 12.6 17.531 12.588 19.968 12.588C22.405 12.588 22.655 12.588 23.622 12.643C24.1924 12.6499 24.7573 12.7551 25.292 12.954C25.6809 13.1043 26.0341 13.3342 26.3289 13.629C26.6238 13.9239 26.8537 14.2771 27.004 14.666C27.2005 15.201 27.3056 15.7652 27.315 16.335C27.358 17.286 27.369 17.553 27.369 19.99C27.369 22.426 27.369 22.688 27.326 23.644H27.315V23.643Z" fill="white"/>
<defs>
<linearGradient id="paint0_linear_1128_4040" x1="41.4583" y1="4.83874" x2="1.91318" y2="5.98054" gradientUnits="userSpaceOnUse">
<stop stop-color="#4D31ED"/>
<stop offset="1" stop-color="#45A2DD"/>
</linearGradient>
</defs>
</svg>
