<svg width="40" height="40" viewBox="0 0 40 40" fill="none" xmlns="http://www.w3.org/2000/svg">
<rect width="40" height="40" rx="20" fill="url(#paint0_linear_1128_4039)"/>
<path d="M20 11C15.038 11 11 15.038 11 20C11 24.962 15.038 29 20 29C24.962 29 29 24.962 29 20C29 15.038 24.962 11 20 11ZM20 12.5C24.1512 12.5 27.5 15.8488 27.5 20C27.5018 21.7955 26.858 23.5317 25.686 24.892C24.514 26.2522 22.892 27.1456 21.116 27.4093V22.187H23.252L23.5873 20.0173H21.116V18.8322C21.116 17.9323 21.4123 17.132 22.2545 17.132H23.6083V15.239C23.3705 15.2068 22.8673 15.137 21.9163 15.137C19.9303 15.137 18.7662 16.1855 18.7662 18.575V20.0173H16.7248V22.187H18.7662V27.3905C17.0148 27.1022 15.4229 26.2006 14.275 24.8468C13.1271 23.4929 12.498 21.775 12.5 20C12.5 15.8488 15.8488 12.5 20 12.5Z" fill="white"/>
<defs>
<linearGradient id="paint0_linear_1128_4039" x1="41.4583" y1="4.83874" x2="1.91318" y2="5.98054" gradientUnits="userSpaceOnUse">
<stop stop-color="#4D31ED"/>
<stop offset="1" stop-color="#45A2DD"/>
</linearGradient>
</defs>
</svg>
