<svg width="40" height="40" viewBox="0 0 40 40" fill="none" xmlns="http://www.w3.org/2000/svg">
<rect width="40" height="40" rx="20" fill="url(#paint0_linear_1128_4041)"/>
<path fill-rule="evenodd" clip-rule="evenodd" d="M23.0209 11.343C23.5299 11.256 24.0989 11.227 24.6349 11.318C25.5897 11.4792 26.4743 11.9226 27.1749 12.591C27.6309 12.601 28.0799 12.511 28.4769 12.383C28.8606 12.2578 29.2289 12.0898 29.5749 11.882L29.5839 11.876C29.7279 11.78 29.9007 11.7368 30.0729 11.7537C30.2451 11.7706 30.4062 11.8465 30.5288 11.9685C30.6515 12.0906 30.7281 12.2513 30.7458 12.4234C30.7635 12.5956 30.7212 12.7685 30.6259 12.913C30.4189 13.228 30.1299 13.79 29.8069 14.42L29.6519 14.721C29.4669 15.081 29.2769 15.445 29.0999 15.757C28.9889 15.953 28.8699 16.152 28.7499 16.324V16.598C28.7622 18.2366 28.448 19.8613 27.8257 21.3772C27.2033 22.8931 26.2853 24.2699 25.1251 25.4271C23.9649 26.5844 22.5859 27.499 21.0684 28.1176C19.551 28.7362 17.9255 29.0463 16.2869 29.03C13.9124 29.0321 11.5878 28.348 9.59291 27.06C9.45033 26.9677 9.34326 26.8299 9.28923 26.6689C9.23519 26.5079 9.23739 26.3333 9.29546 26.1737C9.35353 26.0142 9.46403 25.879 9.60889 25.7904C9.75376 25.7018 9.9244 25.665 10.0929 25.686C11.4708 25.8507 12.8673 25.6284 14.1259 25.044C13.5118 24.7648 12.9626 24.3608 12.5133 23.8577C12.0639 23.3547 11.7243 22.7635 11.5159 22.122C11.4762 21.9991 11.4689 21.8682 11.4946 21.7417C11.5204 21.6152 11.5784 21.4975 11.6629 21.4L11.6729 21.39C11.1653 20.9377 10.7585 20.3838 10.4789 19.7641C10.1993 19.1444 10.0531 18.4728 10.0499 17.793V17.741C10.0498 17.5763 10.1039 17.4162 10.2039 17.2854C10.3038 17.1545 10.444 17.0602 10.6029 17.017C10.2643 16.3413 10.0886 15.5957 10.0899 14.84C10.0893 13.9831 10.3135 13.1411 10.7399 12.398C10.8005 12.2925 10.8858 12.2033 10.9886 12.1381C11.0913 12.073 11.2084 12.0338 11.3296 12.0239C11.4509 12.0141 11.5727 12.0339 11.6846 12.0816C11.7965 12.1294 11.8951 12.2036 11.9719 12.298C13.7211 14.4529 16.2271 15.8586 18.9779 16.228C18.954 15.3282 19.181 14.4394 19.6335 13.6613C20.086 12.8832 20.7461 12.2463 21.5399 11.822C21.9419 11.608 22.4739 11.437 23.0219 11.343H23.0209ZM11.7429 18.891C11.9371 19.4375 12.2699 19.9242 12.7086 20.3036C13.1474 20.6829 13.6771 20.9418 14.2459 21.055C14.4098 21.0876 14.5581 21.1741 14.6673 21.3006C14.7764 21.4271 14.8402 21.5865 14.8485 21.7534C14.8567 21.9203 14.809 22.0852 14.7129 22.2219C14.6168 22.3586 14.4778 22.4593 14.3179 22.508C14.0459 22.591 13.7669 22.648 13.4839 22.681C13.7912 23.0773 14.1833 23.3998 14.6315 23.6247C15.0796 23.8497 15.5725 23.9714 16.0739 23.981C16.2286 23.9839 16.3785 24.0345 16.5033 24.126C16.628 24.2175 16.7214 24.3453 16.7707 24.4919C16.82 24.6385 16.8227 24.7968 16.7785 24.945C16.7344 25.0933 16.6454 25.2242 16.5239 25.32C15.4812 26.1404 14.2694 26.7193 12.9759 27.015C14.0468 27.3577 15.1645 27.5315 16.2889 27.53H16.2979C17.7379 27.5452 19.1665 27.2732 20.5002 26.73C21.834 26.1868 23.0461 25.3833 24.0657 24.3663C25.0854 23.3494 25.8921 22.1394 26.4388 20.8072C26.9856 19.4749 27.2613 18.047 27.2499 16.607V16.072C27.2498 15.8899 27.3159 15.7139 27.4359 15.577C27.5059 15.498 27.6259 15.316 27.7959 15.017C27.9559 14.735 28.1339 14.395 28.3189 14.036L28.3519 13.97C27.8295 14.0875 27.2917 14.1203 26.7589 14.067C26.5788 14.0473 26.4118 13.9632 26.2889 13.83C25.786 13.2846 25.1163 12.9217 24.3849 12.798C24.016 12.7458 23.6411 12.7542 23.2749 12.823C22.918 12.8785 22.5715 12.9874 22.2469 13.146C21.5926 13.4956 21.0728 14.0525 20.7691 14.7294C20.4654 15.4062 20.395 16.1648 20.5689 16.886C20.5963 16.9994 20.5968 17.1176 20.5705 17.2313C20.5441 17.3449 20.4917 17.4508 20.4172 17.5407C20.3427 17.6305 20.2483 17.7017 20.1415 17.7486C20.0347 17.7955 19.9184 17.8169 19.8019 17.811C16.7295 17.6556 13.8248 16.3627 11.6529 14.184C11.6107 14.4004 11.5896 14.6204 11.5899 14.841V14.843C11.5888 15.3937 11.7239 15.9362 11.9831 16.4221C12.2424 16.908 12.6178 17.3223 13.0759 17.628C13.2104 17.7185 13.312 17.8502 13.3654 18.0033C13.4187 18.1565 13.421 18.3228 13.3719 18.4773C13.3228 18.6319 13.2249 18.7663 13.093 18.8605C12.961 18.9548 12.802 19.0037 12.6399 19C12.3381 18.9916 12.0378 18.9558 11.7429 18.891Z" fill="white"/>
<defs>
<linearGradient id="paint0_linear_1128_4041" x1="41.4583" y1="4.83874" x2="1.91318" y2="5.98054" gradientUnits="userSpaceOnUse">
<stop stop-color="#4D31ED"/>
<stop offset="1" stop-color="#45A2DD"/>
</linearGradient>
</defs>
</svg>
