<svg width="40" height="40" viewBox="0 0 40 40" fill="none" xmlns="http://www.w3.org/2000/svg">
<rect width="40" height="40" rx="20" fill="url(#paint0_linear_1128_4043)"/>
<path d="M22.501 11C22.8988 11 23.2803 11.158 23.5616 11.4393C23.8429 11.7206 24.001 12.1022 24.001 12.5V17.5C24.001 17.8978 23.8429 18.2794 23.5616 18.5607C23.2803 18.842 22.8988 19 22.501 19C22.1032 19 21.7216 18.842 21.4403 18.5607C21.159 18.2794 21.001 17.8978 21.001 17.5V12.5C21.001 12.1022 21.159 11.7206 21.4403 11.4393C21.7216 11.158 22.1032 11 22.501 11ZM12.501 21H14.001V22.5C14.001 22.7967 13.913 23.0867 13.7482 23.3334C13.5834 23.58 13.3491 23.7723 13.075 23.8858C12.8009 23.9994 12.4993 24.0291 12.2083 23.9712C11.9174 23.9133 11.6501 23.7704 11.4403 23.5607C11.2305 23.3509 11.0877 23.0836 11.0298 22.7926C10.9719 22.5017 11.0016 22.2001 11.1152 21.926C11.2287 21.6519 11.4209 21.4176 11.6676 21.2528C11.9143 21.088 12.2043 21 12.501 21ZM21.001 26H22.501C22.7976 26 23.0877 26.088 23.3343 26.2528C23.581 26.4176 23.7733 26.6519 23.8868 26.926C24.0003 27.2001 24.03 27.5017 23.9722 27.7926C23.9143 28.0836 23.7714 28.3509 23.5616 28.5607C23.3519 28.7704 23.0846 28.9133 22.7936 28.9712C22.5026 29.0291 22.201 28.9993 21.927 28.8858C21.6529 28.7723 21.4186 28.58 21.2538 28.3334C21.089 28.0867 21.001 27.7967 21.001 27.5V26ZM22.501 21H27.501C27.8988 21 28.2803 21.158 28.5616 21.4393C28.8429 21.7206 29.001 22.1022 29.001 22.5C29.001 22.8978 28.8429 23.2794 28.5616 23.5607C28.2803 23.842 27.8988 24 27.501 24H22.501C22.1032 24 21.7216 23.842 21.4403 23.5607C21.159 23.2794 21.001 22.8978 21.001 22.5C21.001 22.1022 21.159 21.7206 21.4403 21.4393C21.7216 21.158 22.1032 21 22.501 21ZM27.501 16C27.8988 16 28.2803 16.158 28.5616 16.4393C28.8429 16.7206 29.001 17.1022 29.001 17.5C29.001 17.8978 28.8429 18.2794 28.5616 18.5607C28.2803 18.842 27.8988 19 27.501 19H26.001V17.5C26.001 17.1022 26.159 16.7206 26.4403 16.4393C26.7216 16.158 27.1032 16 27.501 16ZM12.501 16H17.501C17.8988 16 18.2803 16.158 18.5616 16.4393C18.8429 16.7206 19.001 17.1022 19.001 17.5C19.001 17.8978 18.8429 18.2794 18.5616 18.5607C18.2803 18.842 17.8988 19 17.501 19H12.501C12.1032 19 11.7216 18.842 11.4403 18.5607C11.159 18.2794 11.001 17.8978 11.001 17.5C11.001 17.1022 11.159 16.7206 11.4403 16.4393C11.7216 16.158 12.1032 16 12.501 16ZM17.501 11C17.8988 11 18.2803 11.158 18.5616 11.4393C18.8429 11.7206 19.001 12.1022 19.001 12.5V14H17.501C17.1032 14 16.7216 13.842 16.4403 13.5607C16.159 13.2794 16.001 12.8978 16.001 12.5C16.001 12.1022 16.159 11.7206 16.4403 11.4393C16.7216 11.158 17.1032 11 17.501 11ZM17.501 21C17.8988 21 18.2803 21.158 18.5616 21.4393C18.8429 21.7206 19.001 22.1022 19.001 22.5V27.5C19.001 27.8978 18.8429 28.2794 18.5616 28.5607C18.2803 28.842 17.8988 29 17.501 29C17.1032 29 16.7216 28.842 16.4403 28.5607C16.159 28.2794 16.001 27.8978 16.001 27.5V22.5C16.001 22.1022 16.159 21.7206 16.4403 21.4393C16.7216 21.158 17.1032 21 17.501 21Z" fill="white"/>
<defs>
<linearGradient id="paint0_linear_1128_4043" x1="41.4583" y1="4.83874" x2="1.91318" y2="5.98054" gradientUnits="userSpaceOnUse">
<stop stop-color="#4D31ED"/>
<stop offset="1" stop-color="#45A2DD"/>
</linearGradient>
</defs>
</svg>
