<svg width="40" height="40" viewBox="0 0 40 40" fill="none" xmlns="http://www.w3.org/2000/svg">
<rect width="40" height="40" rx="20" fill="url(#paint0_linear_1128_4042)"/>
<path d="M13.625 11.75C13.1288 11.7535 12.6539 11.9522 12.3031 12.3031C11.9522 12.6539 11.7535 13.1288 11.75 13.625V26.375C11.75 27.4002 12.5998 28.25 13.625 28.25H26.375C27.4002 28.25 28.25 27.4002 28.25 26.375V13.625C28.25 12.5998 27.4002 11.75 26.375 11.75H13.625ZM13.625 13.25H26.375C26.5887 13.25 26.75 13.4112 26.75 13.625V26.375C26.751 26.4245 26.742 26.4737 26.7235 26.5197C26.7051 26.5657 26.6775 26.6074 26.6424 26.6424C26.6074 26.6775 26.5657 26.7051 26.5197 26.7235C26.4737 26.742 26.4245 26.751 26.375 26.75H13.625C13.5754 26.7511 13.5262 26.7422 13.4802 26.7238C13.4342 26.7053 13.3924 26.6777 13.3573 26.6427C13.3223 26.6076 13.2947 26.5658 13.2762 26.5198C13.2578 26.4738 13.2489 26.4246 13.25 26.375V13.625C13.25 13.4112 13.4112 13.25 13.625 13.25ZM15.8285 14.5392C15.6566 14.5351 15.4857 14.5654 15.3257 14.6283C15.1657 14.6912 15.0199 14.7855 14.8968 14.9056C14.7738 15.0257 14.676 15.1691 14.6093 15.3276C14.5425 15.486 14.5082 15.6562 14.5082 15.8281C14.5082 16 14.5425 16.1702 14.6093 16.3287C14.676 16.4871 14.7738 16.6306 14.8968 16.7507C15.0199 16.8708 15.1657 16.9651 15.3257 17.028C15.4857 17.0909 15.6566 17.1211 15.8285 17.117C16.1649 17.1089 16.4849 16.9695 16.72 16.7287C16.9551 16.4879 17.0867 16.1647 17.0867 15.8281C17.0867 15.4916 16.9551 15.1684 16.72 14.9275C16.4849 14.6867 16.1649 14.5474 15.8285 14.5392ZM22.601 17.9608C21.5262 17.9608 20.8115 18.5495 20.516 19.109H20.4688V18.125H18.359V25.25H20.5625V21.734C20.5625 20.8055 20.747 19.9062 21.8983 19.9062C23.0323 19.9062 23.0472 20.9548 23.0472 21.7812V25.25H25.25V21.3358C25.25 19.4203 24.842 17.9608 22.601 17.9608ZM14.75 18.125V25.25H16.9767V18.125H14.75Z" fill="white"/>
<defs>
<linearGradient id="paint0_linear_1128_4042" x1="41.4583" y1="4.83874" x2="1.91318" y2="5.98054" gradientUnits="userSpaceOnUse">
<stop stop-color="#4D31ED"/>
<stop offset="1" stop-color="#45A2DD"/>
</linearGradient>
</defs>
</svg>
