<svg width="24" height="25" viewBox="0 0 24 25" fill="none" xmlns="http://www.w3.org/2000/svg">
<g clip-path="url(#clip0_1428_2325)">
<path d="M3 6.5C3 7.03043 3.21071 7.53914 3.58579 7.91421C3.96086 8.28929 4.46957 8.5 5 8.5C5.53043 8.5 6.03914 8.28929 6.41421 7.91421C6.78929 7.53914 7 7.03043 7 6.5C7 5.96957 6.78929 5.46086 6.41421 5.08579C6.03914 4.71071 5.53043 4.5 5 4.5C4.46957 4.5 3.96086 4.71071 3.58579 5.08579C3.21071 5.46086 3 5.96957 3 6.5Z" stroke="#8D8D8D" stroke-linecap="round" stroke-linejoin="round"/>
<path d="M10 6.5C10 7.03043 10.2107 7.53914 10.5858 7.91421C10.9609 8.28929 11.4696 8.5 12 8.5C12.5304 8.5 13.0391 8.28929 13.4142 7.91421C13.7893 7.53914 14 7.03043 14 6.5C14 5.96957 13.7893 5.46086 13.4142 5.08579C13.0391 4.71071 12.5304 4.5 12 4.5C11.4696 4.5 10.9609 4.71071 10.5858 5.08579C10.2107 5.46086 10 5.96957 10 6.5Z" stroke="#8D8D8D" stroke-linecap="round" stroke-linejoin="round"/>
<path d="M17 6.5C17 7.03043 17.2107 7.53914 17.5858 7.91421C17.9609 8.28929 18.4696 8.5 19 8.5C19.5304 8.5 20.0391 8.28929 20.4142 7.91421C20.7893 7.53914 21 7.03043 21 6.5C21 5.96957 20.7893 5.46086 20.4142 5.08579C20.0391 4.71071 19.5304 4.5 19 4.5C18.4696 4.5 17.9609 4.71071 17.5858 5.08579C17.2107 5.46086 17 5.96957 17 6.5Z" stroke="#8D8D8D" stroke-linecap="round" stroke-linejoin="round"/>
<path d="M3 18.5C3 19.0304 3.21071 19.5391 3.58579 19.9142C3.96086 20.2893 4.46957 20.5 5 20.5C5.53043 20.5 6.03914 20.2893 6.41421 19.9142C6.78929 19.5391 7 19.0304 7 18.5C7 17.9696 6.78929 17.4609 6.41421 17.0858C6.03914 16.7107 5.53043 16.5 5 16.5C4.46957 16.5 3.96086 16.7107 3.58579 17.0858C3.21071 17.4609 3 17.9696 3 18.5Z" stroke="#8D8D8D" stroke-linecap="round" stroke-linejoin="round"/>
<path d="M10 18.5C10 19.0304 10.2107 19.5391 10.5858 19.9142C10.9609 20.2893 11.4696 20.5 12 20.5C12.5304 20.5 13.0391 20.2893 13.4142 19.9142C13.7893 19.5391 14 19.0304 14 18.5C14 17.9696 13.7893 17.4609 13.4142 17.0858C13.0391 16.7107 12.5304 16.5 12 16.5C11.4696 16.5 10.9609 16.7107 10.5858 17.0858C10.2107 17.4609 10 17.9696 10 18.5Z" stroke="#8D8D8D" stroke-linecap="round" stroke-linejoin="round"/>
<path d="M5 8.5V16.5" stroke="#8D8D8D" stroke-linecap="round" stroke-linejoin="round"/>
<path d="M12 8.5V16.5" stroke="#8D8D8D" stroke-linecap="round" stroke-linejoin="round"/>
<path d="M19 8.5V10.5C19 11.0304 18.7893 11.5391 18.4142 11.9142C18.0391 12.2893 17.5304 12.5 17 12.5H5" stroke="#8D8D8D" stroke-linecap="round" stroke-linejoin="round"/>
</g>
<defs>
<clipPath id="clip0_1428_2325">
<rect width="24" height="24" fill="white" transform="translate(0 0.5)"/>
</clipPath>
</defs>
</svg>
