<svg width="123" height="50" viewBox="0 0 123 50" fill="none" xmlns="http://www.w3.org/2000/svg">
<path d="M111.501 18.3081C111.447 18.2898 111.428 18.1983 111.355 18.1068C111.483 18.0702 111.593 18.0519 111.702 18.0336C112.122 17.9604 112.451 17.7408 112.396 17.2651C112.341 16.7893 111.976 16.6429 111.538 16.6429C111.319 16.6429 111.081 16.6429 110.862 16.6429C109.712 16.6429 109.694 16.6429 109.274 15.5817C108.781 14.3191 107.996 13.4042 106.535 13.3859C104.235 13.3493 101.934 13.3493 99.6337 13.3859C98.52 13.4042 97.534 13.9532 97.2237 14.9778C96.7855 16.4234 95.9456 16.8808 94.5762 16.6429C94.558 16.6429 94.5215 16.6429 94.5032 16.6429C94.0285 16.5881 93.8094 16.7527 93.8094 17.2834C93.8094 17.7957 93.9007 18.0885 94.485 18.0336C94.6128 18.0153 94.7406 18.0702 94.9597 18.1251C94.7223 18.3081 94.5762 18.4544 94.4119 18.5459C92.4583 19.6072 92.8052 22.3336 93.6634 23.5778C93.992 24.0719 94.1746 24.511 94.1381 25.0783C94.1198 25.3527 94.1198 25.6272 94.1381 25.9017C94.1563 26.4689 94.4302 26.7983 95.0327 26.7983C95.7995 26.7983 96.5846 26.7983 97.3515 26.7983C97.8444 26.7983 98.1183 26.5604 98.1366 26.0481C98.1366 25.8651 98.1548 25.7004 98.1548 25.554C101.478 25.554 104.746 25.554 108.032 25.554C108.233 26.78 108.233 26.78 109.603 26.7983C109.986 26.7983 110.369 26.7983 110.771 26.7983C112.031 26.7983 112.122 26.7251 112.086 25.4991C112.067 24.7306 112.104 24.017 112.688 23.4132C112.834 23.2668 112.98 23.0106 112.98 22.8093C112.98 21.1625 113.492 19.3327 111.501 18.3081ZM98.0087 14.8132C98.2826 14.4289 98.9582 14.1361 99.4694 14.1178C101.879 14.0446 104.308 14.0812 106.718 14.0812C107.576 14.0812 108.178 14.5021 108.489 15.3255C108.744 16.0025 109.018 16.6612 109.31 17.4298C105.093 17.0089 100.985 17.0089 96.6942 17.5212C97.1689 16.5149 97.461 15.5817 98.0087 14.8132ZM97.388 22.7544C97.1324 22.8093 96.8402 22.8093 96.5846 22.8276V22.8093C96.4933 22.8093 96.402 22.8093 96.3108 22.8093C95.69 22.7544 95.051 22.7178 94.8501 21.9676C94.631 21.1991 94.9049 20.4123 95.5439 19.9732C96.1464 19.5706 96.8585 19.5889 97.4428 20.083C97.6801 20.2842 97.9175 20.5221 98.1183 20.76C98.7756 21.62 98.4652 22.5166 97.388 22.7544ZM106.353 24.2915C104.18 24.2915 101.989 24.2915 99.8345 24.2915C99.798 24.2366 99.7615 24.2183 99.7615 24.2C99.5607 22.4251 99.5607 22.4251 101.332 22.4251C102.993 22.4251 104.655 22.4251 106.371 22.4251C106.353 23.0655 106.353 23.651 106.353 24.2915ZM110.205 22.7727C109.986 22.8093 109.749 22.7727 109.53 22.7727V22.791C109.42 22.791 109.292 22.8276 109.183 22.791C108.726 22.6264 108.124 22.5715 107.886 22.2421C107.521 21.7481 107.759 21.1076 108.124 20.5953C108.598 19.9549 109.237 19.5523 110.059 19.6987C110.789 19.8451 111.228 20.3391 111.374 21.0893C111.556 21.9676 111.1 22.6264 110.205 22.7727ZM35.2926 46.5417L21.1975 28.3353C26.2732 26.5238 29.9248 21.6566 29.9248 15.9293C29.9248 14.74 29.7605 13.5872 29.4684 12.4893C28.3364 8.26252 25.1595 4.85911 21.0514 3.46847C19.7003 3.01102 18.2945 2.80974 16.8704 2.80974H0V46.7247H9.6402V29.2136L23.2059 46.7247H35.4204L35.3657 46.6698H45.1519V2.75485H35.2926V46.5417ZM16.0305 21.6566C15.428 21.9127 14.7707 22.0774 14.0769 22.114V22.1506H9.6402V10.8059H13.803C15.3549 10.8059 16.7608 11.4463 17.7833 12.471C18.7874 13.4957 19.4265 14.9046 19.4265 16.46C19.4265 18.7838 18.0206 20.7783 16.0305 21.6566ZM82.8546 19.8085C82.453 18.0702 81.8687 16.3868 81.0654 14.8315C81.0106 14.7217 80.9558 14.6119 80.901 14.5021C80.901 14.5021 80.901 14.4838 80.8828 14.4838C80.828 14.374 80.7732 14.2642 80.7002 14.1544C80.6454 14.0446 80.5724 13.9349 80.5176 13.8251C80.4628 13.7153 80.3898 13.6238 80.335 13.514C80.2803 13.4042 80.2072 13.3127 80.1525 13.2029C80.1159 13.1481 80.0794 13.0749 80.0429 13.02C80.0247 12.9834 79.9881 12.9285 79.9699 12.8919L79.9516 12.8736C79.9334 12.8553 79.9334 12.837 79.9151 12.8187C79.9151 12.8187 79.9151 12.8004 79.8969 12.8004C79.8969 12.8004 79.8969 12.8004 79.8969 12.7821C79.8238 12.6723 79.7508 12.5442 79.6595 12.4344C79.5682 12.3063 79.4952 12.1783 79.4039 12.0685C79.3126 11.9404 79.2213 11.8306 79.13 11.7025C78.9839 11.5195 78.8379 11.3366 78.6918 11.1536C78.637 11.0804 78.5823 11.0255 78.5275 10.9523C78.4362 10.8425 78.3267 10.7144 78.2171 10.6046C78.1258 10.4949 78.0345 10.4034 77.9432 10.2936C77.8702 10.2021 77.7789 10.1106 77.7059 10.0374C77.6694 10.0008 77.6511 9.96422 77.6146 9.94592C77.5598 9.87273 77.4868 9.81783 77.4138 9.74464C77.359 9.68975 77.3042 9.63486 77.2677 9.57996C77.2129 9.52507 77.1582 9.45188 77.0851 9.39698C77.0303 9.34209 76.9938 9.30549 76.9391 9.2506C76.866 9.17741 76.793 9.12251 76.7382 9.04932C76.6469 8.95783 76.5374 8.86634 76.4461 8.77485C76.3548 8.70166 76.2818 8.62847 76.1905 8.53698C76.0262 8.3906 75.8618 8.24422 75.6975 8.11613C75.5697 8.00634 75.4419 7.89656 75.3141 7.78677C74.8394 7.38421 74.3282 7.01826 73.8169 6.6523C70.567 4.34677 66.8972 3.12081 62.99 2.95613C61.5841 2.90123 60.1782 2.86464 58.7724 2.86464C58.7176 2.86464 58.6446 2.88293 58.5898 2.88293V2.86464C55.559 2.84634 52.5282 2.91953 49.5156 2.90123C48.8948 2.90123 48.7488 3.08421 48.7488 3.68804C48.7488 4.71272 48.7488 5.7557 48.7488 6.78038C48.7488 8.3906 48.7488 10.0191 48.7488 11.6293C48.7488 13.5872 48.7488 15.5268 48.7488 17.4846C48.7488 22.2604 48.7488 27.0544 48.7488 31.8302C48.7488 33.7881 48.7488 35.7276 48.7488 37.6855C48.7488 39.2957 48.7488 40.9242 48.7488 42.5345C48.7488 43.6323 48.7488 44.7302 48.7488 45.8098C48.7488 46.3038 48.8766 46.5051 49.2235 46.56H58.6081V46.4319C59.0645 46.4868 59.521 46.5417 59.9774 46.56H62.0771C62.7344 46.56 63.4099 46.5417 64.0489 46.4502C66.7329 46.0477 69.3255 45.334 71.7355 44.0166C73.0319 43.3213 74.2186 42.5345 75.3324 41.6379C75.6975 41.3451 76.0444 41.034 76.3913 40.723C76.4643 40.6498 76.5374 40.5949 76.6104 40.5217C79.0935 38.143 81.0288 35.1787 82.1791 31.8485C82.9642 29.5979 83.3841 27.1642 83.3841 24.6391C83.3841 24.3464 83.3841 24.0719 83.3659 23.7791C83.3293 22.4434 83.1468 21.1076 82.8546 19.8085ZM72.6302 24.877C72.6119 26.2127 72.3928 27.4753 72.0094 28.683C71.4252 30.7506 70.421 32.617 68.7777 34.2455C67.1528 35.8557 65.254 36.917 63.063 37.4111C62.1318 37.6123 61.1642 37.6489 60.1965 37.7038C59.8496 37.7221 59.4844 37.7404 59.1375 37.777C58.955 37.7953 58.8454 37.7587 58.7724 37.7038H58.5898V11.6476H59.6123C60.2148 11.6476 60.799 11.6842 61.365 11.7574C63.6655 11.9587 65.8017 12.6906 67.7005 14.2093C69.9097 15.9659 71.4251 18.1617 72.0824 20.943C72.0824 20.943 72.0824 20.943 72.0824 20.9613C72.4293 22.1506 72.6302 23.3949 72.6302 24.694C72.6302 24.7489 72.6302 24.8038 72.6302 24.877ZM116.961 6.28634C102.938 -7.85793 89.1719 6.28634 89.1719 6.28634C89.1719 6.28634 80.262 14.0812 84.9726 27.8596C89.5188 41.1621 103.066 50 103.066 50C115.116 42.5528 131.804 21.254 116.961 6.28634ZM103.066 35.7825C94.4119 35.7825 87.4009 28.7562 87.4009 20.083C87.4009 11.4098 94.4119 4.38336 103.066 4.38336C111.72 4.38336 118.732 11.4098 118.732 20.083C118.732 28.7562 111.72 35.7825 103.066 35.7825Z" fill="#009DFF"/>
</svg>
