<svg width="25" height="20" viewBox="0 0 25 20" fill="none" xmlns="http://www.w3.org/2000/svg">
<mask id="path-1-inside-1_968_298" fill="white">
<path d="M5 9.5C5.21094 9.5 5.40625 9.53906 5.58594 9.61719C5.76562 9.69531 5.92188 9.80078 6.05469 9.93359C6.1875 10.0664 6.29688 10.2266 6.38281 10.4141C6.46875 10.6016 6.50781 10.7969 6.5 11C6.5 11.2109 6.46094 11.4062 6.38281 11.5859C6.30469 11.7656 6.19922 11.9219 6.06641 12.0547C5.93359 12.1875 5.77344 12.2969 5.58594 12.3828C5.39844 12.4688 5.20312 12.5078 5 12.5C4.78906 12.5 4.59375 12.4609 4.41406 12.3828C4.23438 12.3047 4.07812 12.1992 3.94531 12.0664C3.8125 11.9336 3.70313 11.7734 3.61719 11.5859C3.53125 11.3984 3.49219 11.2031 3.5 11C3.5 10.7891 3.53906 10.5938 3.61719 10.4141C3.69531 10.2344 3.80078 10.0781 3.93359 9.94531C4.06641 9.8125 4.22656 9.70312 4.41406 9.61719C4.60156 9.53125 4.79688 9.49219 5 9.5ZM20 9.5C20.2109 9.5 20.4062 9.53906 20.5859 9.61719C20.7656 9.69531 20.9219 9.80078 21.0547 9.93359C21.1875 10.0664 21.2969 10.2266 21.3828 10.4141C21.4688 10.6016 21.5078 10.7969 21.5 11C21.5 11.2109 21.4609 11.4062 21.3828 11.5859C21.3047 11.7656 21.1992 11.9219 21.0664 12.0547C20.9336 12.1875 20.7734 12.2969 20.5859 12.3828C20.3984 12.4688 20.2031 12.5078 20 12.5C19.7891 12.5 19.5938 12.4609 19.4141 12.3828C19.2344 12.3047 19.0781 12.1992 18.9453 12.0664C18.8125 11.9336 18.7031 11.7734 18.6172 11.5859C18.5312 11.3984 18.4922 11.2031 18.5 11C18.5 10.7891 18.5391 10.5938 18.6172 10.4141C18.6953 10.2344 18.8008 10.0781 18.9336 9.94531C19.0664 9.8125 19.2266 9.70312 19.4141 9.61719C19.6016 9.53125 19.7969 9.49219 20 9.5ZM24.0664 6.5L23.293 7.26172C23.3086 7.30078 23.3477 7.41797 23.4102 7.61328C23.4727 7.80859 23.5469 8.03906 23.6328 8.30469C23.7188 8.57031 23.8164 8.85547 23.9258 9.16016C24.0352 9.46484 24.1289 9.74219 24.207 9.99219C24.2852 10.2422 24.3555 10.4531 24.418 10.625C24.4805 10.7969 24.5078 10.8828 24.5 10.8828V18.5C24.5 18.7109 24.4609 18.9062 24.3828 19.0859C24.3047 19.2656 24.1992 19.4219 24.0664 19.5547C23.9336 19.6875 23.7734 19.7969 23.5859 19.8828C23.3984 19.9688 23.2031 20.0078 23 20H21.5C21.2891 20 21.0938 19.9609 20.9141 19.8828C20.7344 19.8047 20.5781 19.6992 20.4453 19.5664C20.3125 19.4336 20.2031 19.2734 20.1172 19.0859C20.0312 18.8984 19.9922 18.7031 20 18.5H5C5 18.7109 4.96094 18.9062 4.88281 19.0859C4.80469 19.2656 4.69922 19.4219 4.56641 19.5547C4.43359 19.6875 4.27344 19.7969 4.08594 19.8828C3.89844 19.9688 3.70313 20.0078 3.5 20H2C1.78906 20 1.59375 19.9609 1.41406 19.8828C1.23438 19.8047 1.07812 19.6992 0.945312 19.5664C0.8125 19.4336 0.703125 19.2734 0.617188 19.0859C0.53125 18.8984 0.492188 18.7031 0.5 18.5V10.8828L0.582031 10.6367L0.792969 10.0039L1.07422 9.16016C1.17578 8.85547 1.26953 8.57031 1.35547 8.30469C1.44141 8.03906 1.51953 7.80859 1.58984 7.61328C1.66016 7.41797 1.69922 7.30078 1.70703 7.26172L0.933594 6.5H0.5V5H1.56641L2.23438 5.67969L3.10156 3.06641C3.22656 2.68359 3.40625 2.33594 3.64062 2.02344C3.875 1.71094 4.15234 1.44141 4.47266 1.21484C4.79297 0.988281 5.13281 0.8125 5.49219 0.6875C5.85156 0.5625 6.24219 0.5 6.66406 0.5H18.3359C18.7422 0.5 19.1289 0.5625 19.4961 0.6875C19.8633 0.8125 20.207 0.984375 20.5273 1.20312C20.8477 1.42188 21.1211 1.69141 21.3477 2.01172C21.5742 2.33203 21.7578 2.68359 21.8984 3.06641L22.7656 5.67969L23.4336 5H24.5V6.5H24.0664ZM6.66406 2C6.17188 2 5.73438 2.14062 5.35156 2.42188C4.96875 2.70312 4.69531 3.07422 4.53125 3.53516L3.53516 6.5H21.4648L20.4688 3.53516C20.3125 3.07422 20.043 2.70312 19.6602 2.42188C19.2773 2.14062 18.8359 2 18.3359 2H6.66406ZM17 16.4258L15.7812 14H9.21875L8 16.4258V17H17V16.4258ZM23 17V11.1172L22.9297 10.9062C22.8828 10.7656 22.8242 10.582 22.7539 10.3555C22.6836 10.1289 22.6016 9.89062 22.5078 9.64062C22.4141 9.39062 22.332 9.14453 22.2617 8.90234C22.1914 8.66016 22.125 8.46094 22.0625 8.30469C22 8.14844 21.9648 8.04688 21.957 8H3.04297C3.02734 8.03906 2.99219 8.14062 2.9375 8.30469C2.88281 8.46875 2.81641 8.66406 2.73828 8.89062C2.66016 9.11719 2.57812 9.36328 2.49219 9.62891C2.40625 9.89453 2.32812 10.1367 2.25781 10.3555C2.1875 10.5742 2.125 10.7539 2.07031 10.8945C2.01562 11.0352 1.99219 11.1094 2 11.1172V17H6.5V16.0742L8.28125 12.5H16.7188L18.5 16.0742V17H23Z"/>
</mask>
<path d="M5 9.5C5.21094 9.5 5.40625 9.53906 5.58594 9.61719C5.76562 9.69531 5.92188 9.80078 6.05469 9.93359C6.1875 10.0664 6.29688 10.2266 6.38281 10.4141C6.46875 10.6016 6.50781 10.7969 6.5 11C6.5 11.2109 6.46094 11.4062 6.38281 11.5859C6.30469 11.7656 6.19922 11.9219 6.06641 12.0547C5.93359 12.1875 5.77344 12.2969 5.58594 12.3828C5.39844 12.4688 5.20312 12.5078 5 12.5C4.78906 12.5 4.59375 12.4609 4.41406 12.3828C4.23438 12.3047 4.07812 12.1992 3.94531 12.0664C3.8125 11.9336 3.70313 11.7734 3.61719 11.5859C3.53125 11.3984 3.49219 11.2031 3.5 11C3.5 10.7891 3.53906 10.5938 3.61719 10.4141C3.69531 10.2344 3.80078 10.0781 3.93359 9.94531C4.06641 9.8125 4.22656 9.70312 4.41406 9.61719C4.60156 9.53125 4.79688 9.49219 5 9.5ZM20 9.5C20.2109 9.5 20.4062 9.53906 20.5859 9.61719C20.7656 9.69531 20.9219 9.80078 21.0547 9.93359C21.1875 10.0664 21.2969 10.2266 21.3828 10.4141C21.4688 10.6016 21.5078 10.7969 21.5 11C21.5 11.2109 21.4609 11.4062 21.3828 11.5859C21.3047 11.7656 21.1992 11.9219 21.0664 12.0547C20.9336 12.1875 20.7734 12.2969 20.5859 12.3828C20.3984 12.4688 20.2031 12.5078 20 12.5C19.7891 12.5 19.5938 12.4609 19.4141 12.3828C19.2344 12.3047 19.0781 12.1992 18.9453 12.0664C18.8125 11.9336 18.7031 11.7734 18.6172 11.5859C18.5312 11.3984 18.4922 11.2031 18.5 11C18.5 10.7891 18.5391 10.5938 18.6172 10.4141C18.6953 10.2344 18.8008 10.0781 18.9336 9.94531C19.0664 9.8125 19.2266 9.70312 19.4141 9.61719C19.6016 9.53125 19.7969 9.49219 20 9.5ZM24.0664 6.5L23.293 7.26172C23.3086 7.30078 23.3477 7.41797 23.4102 7.61328C23.4727 7.80859 23.5469 8.03906 23.6328 8.30469C23.7188 8.57031 23.8164 8.85547 23.9258 9.16016C24.0352 9.46484 24.1289 9.74219 24.207 9.99219C24.2852 10.2422 24.3555 10.4531 24.418 10.625C24.4805 10.7969 24.5078 10.8828 24.5 10.8828V18.5C24.5 18.7109 24.4609 18.9062 24.3828 19.0859C24.3047 19.2656 24.1992 19.4219 24.0664 19.5547C23.9336 19.6875 23.7734 19.7969 23.5859 19.8828C23.3984 19.9688 23.2031 20.0078 23 20H21.5C21.2891 20 21.0938 19.9609 20.9141 19.8828C20.7344 19.8047 20.5781 19.6992 20.4453 19.5664C20.3125 19.4336 20.2031 19.2734 20.1172 19.0859C20.0312 18.8984 19.9922 18.7031 20 18.5H5C5 18.7109 4.96094 18.9062 4.88281 19.0859C4.80469 19.2656 4.69922 19.4219 4.56641 19.5547C4.43359 19.6875 4.27344 19.7969 4.08594 19.8828C3.89844 19.9688 3.70313 20.0078 3.5 20H2C1.78906 20 1.59375 19.9609 1.41406 19.8828C1.23438 19.8047 1.07812 19.6992 0.945312 19.5664C0.8125 19.4336 0.703125 19.2734 0.617188 19.0859C0.53125 18.8984 0.492188 18.7031 0.5 18.5V10.8828L0.582031 10.6367L0.792969 10.0039L1.07422 9.16016C1.17578 8.85547 1.26953 8.57031 1.35547 8.30469C1.44141 8.03906 1.51953 7.80859 1.58984 7.61328C1.66016 7.41797 1.69922 7.30078 1.70703 7.26172L0.933594 6.5H0.5V5H1.56641L2.23438 5.67969L3.10156 3.06641C3.22656 2.68359 3.40625 2.33594 3.64062 2.02344C3.875 1.71094 4.15234 1.44141 4.47266 1.21484C4.79297 0.988281 5.13281 0.8125 5.49219 0.6875C5.85156 0.5625 6.24219 0.5 6.66406 0.5H18.3359C18.7422 0.5 19.1289 0.5625 19.4961 0.6875C19.8633 0.8125 20.207 0.984375 20.5273 1.20312C20.8477 1.42188 21.1211 1.69141 21.3477 2.01172C21.5742 2.33203 21.7578 2.68359 21.8984 3.06641L22.7656 5.67969L23.4336 5H24.5V6.5H24.0664ZM6.66406 2C6.17188 2 5.73438 2.14062 5.35156 2.42188C4.96875 2.70312 4.69531 3.07422 4.53125 3.53516L3.53516 6.5H21.4648L20.4688 3.53516C20.3125 3.07422 20.043 2.70312 19.6602 2.42188C19.2773 2.14062 18.8359 2 18.3359 2H6.66406ZM17 16.4258L15.7812 14H9.21875L8 16.4258V17H17V16.4258ZM23 17V11.1172L22.9297 10.9062C22.8828 10.7656 22.8242 10.582 22.7539 10.3555C22.6836 10.1289 22.6016 9.89062 22.5078 9.64062C22.4141 9.39062 22.332 9.14453 22.2617 8.90234C22.1914 8.66016 22.125 8.46094 22.0625 8.30469C22 8.14844 21.9648 8.04688 21.957 8H3.04297C3.02734 8.03906 2.99219 8.14062 2.9375 8.30469C2.88281 8.46875 2.81641 8.66406 2.73828 8.89062C2.66016 9.11719 2.57812 9.36328 2.49219 9.62891C2.40625 9.89453 2.32812 10.1367 2.25781 10.3555C2.1875 10.5742 2.125 10.7539 2.07031 10.8945C2.01562 11.0352 1.99219 11.1094 2 11.1172V17H6.5V16.0742L8.28125 12.5H16.7188L18.5 16.0742V17H23Z" fill="#252525" stroke="#252525" stroke-width="2" mask="url(#path-1-inside-1_968_298)"/>
</svg>
