<svg width="123" height="50" viewBox="0 0 123 50" fill="none" xmlns="http://www.w3.org/2000/svg">
<path d="M111.677 18.3081C111.622 18.2898 111.603 18.1983 111.53 18.1068C111.658 18.0702 111.768 18.0519 111.878 18.0336C112.298 17.9604 112.627 17.7408 112.573 17.2651C112.518 16.7893 112.152 16.6429 111.713 16.6429C111.494 16.6429 111.256 16.6429 111.037 16.6429C109.884 16.6429 109.866 16.6429 109.446 15.5817C108.952 14.3191 108.166 13.4042 106.703 13.3859C104.398 13.3493 102.094 13.3493 99.7903 13.3859C98.6748 13.4042 97.6873 13.9532 97.3764 14.9778C96.9375 16.4234 96.0964 16.8808 94.7249 16.6429C94.7066 16.6429 94.67 16.6429 94.6517 16.6429C94.1763 16.5881 93.9568 16.7527 93.9568 17.2834C93.9568 17.7957 94.0483 18.0885 94.6334 18.0336C94.7614 18.0153 94.8894 18.0702 95.1089 18.1251C94.8711 18.3081 94.7249 18.4544 94.5603 18.5459C92.6036 19.6072 92.9511 22.3336 93.8105 23.5778C94.1397 24.0719 94.3225 24.511 94.286 25.0783C94.2677 25.3527 94.2677 25.6272 94.286 25.9017C94.3043 26.4689 94.5786 26.7983 95.182 26.7983C95.9501 26.7983 96.7364 26.7983 97.5044 26.7983C97.9982 26.7983 98.2725 26.5604 98.2908 26.0481C98.2908 25.8651 98.309 25.7004 98.309 25.554C101.637 25.554 104.911 25.554 108.202 25.554C108.403 26.78 108.403 26.78 109.775 26.7983C110.159 26.7983 110.543 26.7983 110.945 26.7983C112.207 26.7983 112.298 26.7251 112.262 25.4991C112.243 24.7306 112.28 24.017 112.865 23.4132C113.012 23.2668 113.158 23.0106 113.158 22.8093C113.158 21.1625 113.67 19.3327 111.677 18.3081ZM98.1628 14.8132C98.437 14.4289 99.1137 14.1361 99.6257 14.1178C102.04 14.0446 104.472 14.0812 106.885 14.0812C107.745 14.0812 108.348 14.5021 108.659 15.3255C108.915 16.0025 109.19 16.6612 109.482 17.4298C105.258 17.0089 101.143 17.0089 96.8461 17.5212C97.3216 16.5149 97.6142 15.5817 98.1628 14.8132ZM97.541 22.7544C97.285 22.8093 96.9924 22.8093 96.7364 22.8276V22.8093C96.645 22.8093 96.5535 22.8093 96.4621 22.8093C95.8403 22.7544 95.2003 22.7178 94.9992 21.9676C94.7797 21.1991 95.054 20.4123 95.6941 19.9732C96.2975 19.5706 97.0107 19.5889 97.5959 20.083C97.8336 20.2842 98.0713 20.5221 98.2725 20.76C98.9308 21.62 98.6199 22.5166 97.541 22.7544ZM106.52 24.2915C104.344 24.2915 102.149 24.2915 99.9914 24.2915C99.9548 24.2366 99.9183 24.2183 99.9183 24.2C99.7171 22.4251 99.7171 22.4251 101.491 22.4251C103.155 22.4251 104.819 22.4251 106.538 22.4251C106.52 23.0655 106.52 23.651 106.52 24.2915ZM110.378 22.7727C110.159 22.8093 109.921 22.7727 109.702 22.7727V22.791C109.592 22.791 109.464 22.8276 109.354 22.791C108.897 22.6264 108.294 22.5715 108.056 22.2421C107.69 21.7481 107.928 21.1076 108.294 20.5953C108.769 19.9549 109.409 19.5523 110.232 19.6987C110.963 19.8451 111.402 20.3391 111.549 21.0893C111.731 21.9676 111.274 22.6264 110.378 22.7727ZM35.3481 46.5417L21.2308 28.3353C26.3145 26.5238 29.9718 21.6566 29.9718 15.9293C29.9718 14.74 29.8072 13.5872 29.5147 12.4893C28.3809 8.26252 25.199 4.85911 21.0845 3.46847C19.7313 3.01102 18.3232 2.80974 16.8969 2.80974H0V46.7247H9.65535V29.2136L23.2423 46.7247H35.4761L35.4212 46.6698H45.2229V2.75485H35.3481V46.5417ZM16.0557 21.6566C15.4522 21.9127 14.7939 22.0774 14.099 22.114V22.1506H9.65535V10.8059H13.8247C15.3791 10.8059 16.7871 11.4463 17.8112 12.471C18.817 13.4957 19.457 14.9046 19.457 16.46C19.457 18.7838 18.0489 20.7783 16.0557 21.6566ZM82.9848 19.8085C82.5825 18.0702 81.9974 16.3868 81.1927 14.8315C81.1379 14.7217 81.083 14.6119 81.0282 14.5021C81.0282 14.5021 81.0282 14.4838 81.0099 14.4838C80.955 14.374 80.9002 14.2642 80.827 14.1544C80.7721 14.0446 80.699 13.9349 80.6441 13.8251C80.5893 13.7153 80.5161 13.6238 80.4613 13.514C80.4064 13.4042 80.3333 13.3127 80.2784 13.2029C80.2418 13.1481 80.2053 13.0749 80.1687 13.02C80.1504 12.9834 80.1138 12.9285 80.0955 12.8919L80.0773 12.8736C80.059 12.8553 80.059 12.837 80.0407 12.8187C80.0407 12.8187 80.0407 12.8004 80.0224 12.8004C80.0224 12.8004 80.0224 12.8004 80.0224 12.7821C79.9492 12.6723 79.8761 12.5442 79.7847 12.4344C79.6932 12.3063 79.6201 12.1783 79.5286 12.0685C79.4372 11.9404 79.3458 11.8306 79.2543 11.7025C79.1081 11.5195 78.9618 11.3366 78.8155 11.1536C78.7606 11.0804 78.7058 11.0255 78.6509 10.9523C78.5595 10.8425 78.4497 10.7144 78.34 10.6046C78.2486 10.4949 78.1572 10.4034 78.0657 10.2936C77.9926 10.2021 77.9011 10.1106 77.828 10.0374C77.7914 10.0008 77.7731 9.96422 77.7366 9.94592C77.6817 9.87273 77.6086 9.81783 77.5354 9.74464C77.4805 9.68975 77.4257 9.63486 77.3891 9.57996C77.3343 9.52507 77.2794 9.45188 77.2063 9.39698C77.1514 9.34209 77.1148 9.30549 77.06 9.2506C76.9868 9.17741 76.9137 9.12251 76.8588 9.04932C76.7674 8.95783 76.6577 8.86634 76.5662 8.77485C76.4748 8.70166 76.4016 8.62847 76.3102 8.53698C76.1456 8.3906 75.981 8.24422 75.8165 8.11613C75.6885 8.00634 75.5604 7.89656 75.4324 7.78677C74.957 7.38421 74.445 7.01826 73.9329 6.6523C70.6779 4.34677 67.0023 3.12081 63.089 2.95613C61.6809 2.90123 60.2728 2.86464 58.8647 2.86464C58.8099 2.86464 58.7367 2.88293 58.6819 2.88293V2.86464C55.6463 2.84634 52.6107 2.91953 49.5934 2.90123C48.9717 2.90123 48.8254 3.08421 48.8254 3.68804C48.8254 4.71272 48.8254 5.7557 48.8254 6.78038C48.8254 8.3906 48.8254 10.0191 48.8254 11.6293C48.8254 13.5872 48.8254 15.5268 48.8254 17.4846C48.8254 22.2604 48.8254 27.0544 48.8254 31.8302C48.8254 33.7881 48.8254 35.7276 48.8254 37.6855C48.8254 39.2957 48.8254 40.9242 48.8254 42.5345C48.8254 43.6323 48.8254 44.7302 48.8254 45.8098C48.8254 46.3038 48.9534 46.5051 49.3008 46.56H58.7002V46.4319C59.1573 46.4868 59.6145 46.5417 60.0717 46.56H62.1746C62.8329 46.56 63.5095 46.5417 64.1496 46.4502C66.8377 46.0477 69.4344 45.334 71.8483 44.0166C73.1466 43.3213 74.3352 42.5345 75.4507 41.6379C75.8165 41.3451 76.1639 41.034 76.5114 40.723C76.5845 40.6498 76.6576 40.5949 76.7308 40.5217C79.2178 38.143 81.1562 35.1787 82.3082 31.8485C83.0946 29.5979 83.5151 27.1642 83.5151 24.6391C83.5151 24.3464 83.5151 24.0719 83.4969 23.7791C83.4603 22.4434 83.2774 21.1076 82.9848 19.8085ZM72.7443 24.877C72.726 26.2127 72.5066 27.4753 72.1226 28.683C71.5374 30.7506 70.5316 32.617 68.8858 34.2455C67.2583 35.8557 65.3565 36.917 63.1621 37.4111C62.2295 37.6123 61.2603 37.6489 60.2911 37.7038C59.9436 37.7221 59.5779 37.7404 59.2305 37.777C59.0476 37.7953 58.9379 37.7587 58.8647 37.7038H58.6819V11.6476H59.7059C60.3094 11.6476 60.8946 11.6842 61.4614 11.7574C63.7656 11.9587 65.9051 12.6906 67.8069 14.2093C70.0196 15.9659 71.5374 18.1617 72.1957 20.943C72.1957 20.943 72.1957 20.943 72.1957 20.9613C72.5432 22.1506 72.7443 23.3949 72.7443 24.694C72.7443 24.7489 72.7443 24.8038 72.7443 24.877ZM117.144 6.28634C103.1 -7.85793 89.312 6.28634 89.312 6.28634C89.312 6.28634 80.3881 14.0812 85.1061 27.8596C89.6595 41.1621 103.228 50 103.228 50C115.297 42.5528 132.011 21.254 117.144 6.28634ZM103.228 35.7825C94.5603 35.7825 87.5382 28.7562 87.5382 20.083C87.5382 11.4098 94.5603 4.38336 103.228 4.38336C111.896 4.38336 118.918 11.4098 118.918 20.083C118.918 28.7562 111.896 35.7825 103.228 35.7825Z" fill="white"/>
</svg>
