<svg width="22" height="22" viewBox="0 0 22 22" fill="none" xmlns="http://www.w3.org/2000/svg">
<path fill-rule="evenodd" clip-rule="evenodd" d="M11 1.75C5.89137 1.75 1.75 5.89137 1.75 11C1.75 16.1086 5.89137 20.25 11 20.25C16.1086 20.25 20.25 16.1086 20.25 11C20.25 5.89137 16.1086 1.75 11 1.75ZM0.25 11C0.25 5.06294 5.06294 0.25 11 0.25C16.9371 0.25 21.75 5.06294 21.75 11C21.75 16.9371 16.9371 21.75 11 21.75C5.06294 21.75 0.25 16.9371 0.25 11ZM12.1549 5.11766C12.1687 5.12801 12.1825 5.13838 12.1963 5.14878L13.6509 6.24291C13.6624 6.25157 13.6739 6.26024 13.6854 6.2689C13.9218 6.4466 14.1601 6.62578 14.3326 6.79976C14.5269 6.99571 14.75 7.29429 14.75 7.71759C14.75 8.14088 14.5269 8.43946 14.3326 8.63541C14.1601 8.8094 13.9218 8.98858 13.6854 9.16628C13.6739 9.17494 13.6624 9.1836 13.6509 9.19226L11.2476 11L13.6509 12.8077C13.6624 12.8164 13.6739 12.8251 13.6854 12.8337C13.9218 13.0114 14.1601 13.1906 14.3326 13.3646C14.5269 13.5605 14.75 13.8591 14.75 14.2824C14.75 14.7057 14.5269 15.0043 14.3326 15.2002C14.1601 15.3742 13.9218 15.5534 13.6854 15.7311C13.6739 15.7398 13.6624 15.7484 13.6509 15.7571L12.1963 16.8512C12.1825 16.8616 12.1687 16.872 12.155 16.8823C11.8101 17.1418 11.487 17.385 11.2099 17.536C10.9267 17.6904 10.4599 17.8784 9.96532 17.6304C9.47169 17.3829 9.34226 16.8972 9.29559 16.5782C9.24986 16.2656 9.24992 15.8608 9.24999 15.4282C9.25 15.411 9.25 15.3938 9.25 15.3766V12.6013L7.48014 14.0762C7.16193 14.3413 6.68901 14.2983 6.42383 13.9801C6.15866 13.6619 6.20165 13.189 6.51986 12.9238L8.82846 11L6.51986 9.07617C6.20165 8.81099 6.15866 8.33807 6.42383 8.01986C6.68901 7.70165 7.16193 7.65866 7.48014 7.92383L9.25 9.39872V6.62345C9.25 6.60619 9.25 6.58898 9.24999 6.57181C9.24992 6.1392 9.24986 5.73438 9.29559 5.42179C9.34226 5.10282 9.47169 4.61712 9.96532 4.36957C10.4599 4.12155 10.9267 4.30964 11.2099 4.464C11.487 4.61503 11.8101 4.85816 12.1549 5.11766ZM10.75 12.5027V15.3766C10.75 15.6625 10.7506 15.8801 10.7563 16.0496C10.8944 15.9528 11.0676 15.8232 11.2946 15.6525L12.7491 14.5584C12.8849 14.4563 12.9928 14.375 13.0833 14.3031C13.0922 14.296 13.1008 14.2891 13.1091 14.2824C13.1008 14.2757 13.0922 14.2688 13.0833 14.2617C12.9928 14.1898 12.8849 14.1086 12.7491 14.0065L10.75 12.5027ZM10.41 16.2576C10.41 16.2576 10.4115 16.2571 10.4142 16.2563C10.4113 16.2573 10.41 16.2577 10.41 16.2576ZM10.7969 16.4469C10.798 16.4496 10.7985 16.4511 10.7984 16.4512C10.7984 16.4512 10.7978 16.4499 10.7969 16.4469ZM10.75 9.49734V6.62345C10.75 6.33746 10.7506 6.11985 10.7563 5.95036C10.8944 6.04724 11.0676 6.17676 11.2946 6.3475L12.7491 7.44164C12.8849 7.54373 12.9928 7.62495 13.0833 7.69692C13.0922 7.70402 13.1008 7.71091 13.1091 7.71759C13.1008 7.72426 13.0922 7.73115 13.0833 7.73825C12.9928 7.81022 12.8849 7.89144 12.7491 7.99354L10.75 9.49734ZM10.7984 5.54884C10.7985 5.54892 10.798 5.55041 10.7969 5.55309C10.7978 5.55011 10.7984 5.54877 10.7984 5.54884ZM10.4142 5.74368C10.4115 5.74294 10.41 5.74242 10.41 5.74235C10.41 5.74228 10.4113 5.74265 10.4142 5.74368Z" fill="#252525"/>
</svg>
