<svg width="40" height="13" viewBox="0 0 40 13" fill="none" xmlns="http://www.w3.org/2000/svg">
<path d="M16.9118 9.24471L13.8973 0.824818H10.7871L15.5002 12.2518H18.2755L23.0604 0.824818H19.9741L16.9118 9.24471ZM5.33228 0.824818L0.571289 12.2278H3.63363L4.47099 9.9183H8.89703L9.73439 12.2278H12.8446L8.13145 0.824818H5.33228ZM5.28443 7.68101L6.69598 3.78381L8.0836 7.68101H5.28443ZM23.7542 12.2278H26.5773V0.824818L23.7542 0.824818V12.2278ZM35.1662 3.61541L36.8648 1.88332C35.3337 0.199341 30.5009 -0.257739 29.1851 2.29229C28.3955 3.83192 28.7544 5.03476 29.1851 5.75647C29.4482 6.23761 29.8789 6.59846 30.3813 6.81497C30.7402 6.98337 31.3383 7.19988 32.1996 7.48856C34.0178 8.06592 34.0417 8.88386 34.0417 9.0282C34.0417 9.05225 34.0417 9.05225 34.0417 9.07631C34.0417 9.24471 33.9221 10.1589 32.4866 10.207C30.9076 10.2792 29.8549 9.12442 29.8549 9.12442L28.1802 10.9046C29.1851 12.348 33.9221 13.3825 35.7404 11.4098C36.7452 10.3273 36.8648 9.17254 36.7931 8.35461C36.7213 7.51262 36.2667 6.7428 35.5729 6.26166C33.7068 4.96259 30.7162 5.10693 31.6493 3.32673C32.5106 1.76303 35.1662 3.61541 35.1662 3.61541ZM39.018 0.752648C38.4678 0.752648 38.0371 1.18567 38.0371 1.73898C38.0371 2.29228 38.4678 2.72531 39.018 2.72531C39.5683 2.72531 39.999 2.29228 39.999 1.73898C40.0229 1.20973 39.5683 0.752648 39.018 0.752648ZM39.018 2.58097C38.5635 2.58097 38.2046 2.22011 38.2046 1.76303C38.2046 1.30595 38.5635 0.945103 39.018 0.945103C39.4726 0.945103 39.8315 1.30595 39.8315 1.76303C39.8554 2.19606 39.4726 2.58097 39.018 2.58097ZM39.353 1.73898C39.4008 1.69086 39.4008 1.61869 39.4008 1.54652C39.4008 1.4503 39.3769 1.37813 39.3051 1.33001C39.2573 1.25784 39.1616 1.23378 39.0659 1.23378H38.6831V2.24417H38.8745V1.85926H38.9941L39.2094 2.24417H39.4248L39.1616 1.83521C39.2573 1.83521 39.3051 1.78709 39.353 1.73898ZM39.042 1.71492H38.8745V1.40218H39.0659C39.1137 1.40218 39.1377 1.42624 39.1616 1.4503C39.1855 1.47435 39.2094 1.52247 39.2094 1.54652C39.2094 1.59464 39.1855 1.61869 39.1616 1.64275C39.1377 1.69086 39.0898 1.71492 39.042 1.71492Z" fill="#DB1A32"/>
</svg>
