<svg width="64" height="64" viewBox="0 0 64 64" fill="none" xmlns="http://www.w3.org/2000/svg">
<g opacity="0.8" clip-path="url(#clip0_1407_239)">
<path d="M56.46 31.9049L56.18 31.4071L53.14 24.0708C52.67 22.933 51.74 22.1626 50.69 22.056C48.15 21.7952 43.25 21.333 39.5 21.333C35.75 21.333 30.85 21.7952 28.31 22.056C27.26 22.1626 26.33 22.933 25.86 24.0708L22.82 31.4071L22.54 31.9049" stroke="black" stroke-width="2" stroke-linecap="round" stroke-linejoin="round"/>
<path d="M39.5 34.1567H52.91" stroke="black" stroke-width="2" stroke-linecap="round" stroke-linejoin="round"/>
<path d="M26.0898 34.1567H39.4998" stroke="black" stroke-width="2" stroke-linecap="round" stroke-linejoin="round"/>
<path d="M19.5899 29.5703H18.1499C17.5099 29.5703 16.9299 29.9733 16.6399 30.5896L16.1699 31.597C15.7699 32.5096 16.0999 33.5999 16.9299 34.0503L17.5299 34.3822L20.3399 35.9111L18.7799 38.7081C18.7299 38.7911 18.6799 38.8977 18.6399 38.9807C18.3999 39.5259 18.2699 40.1066 18.2699 40.7229V52.3496C18.2699 53.4873 18.7199 54.5659 19.4899 55.2533L20.4999 56.1659C21.0299 56.6399 21.6599 56.8888 22.3099 56.8888H56.6899C57.3399 56.8888 57.9699 56.6399 58.4999 56.1659L59.5099 55.2533C60.2799 54.5659 60.7299 53.4873 60.7299 52.3496V40.7229C60.7299 40.1066 60.5999 39.5259 60.3599 38.9807C60.3199 38.8977 60.2699 38.7911 60.2199 38.7081L58.6599 35.9111L61.4699 34.3822L62.0699 34.0503C62.8999 33.5999 63.2299 32.5096 62.8299 31.597L62.3599 30.5896C62.0699 29.9733 61.4899 29.5703 60.8499 29.5703H59.4499" stroke="black" stroke-width="2" stroke-linecap="round" stroke-linejoin="round"/>
<path d="M56.7299 41.896L56.4099 42.1449C56.2099 42.3108 55.9699 42.4175 55.7199 42.4412L50.0499 43.176C49.5399 43.2471 49.2199 43.8753 49.4099 44.4323L50.1999 46.7434C50.4399 47.4308 51.0199 47.893 51.6599 47.893H56.7299" stroke="black" stroke-width="2" stroke-linecap="round" stroke-linejoin="round"/>
<path d="M22.27 47.893H27.34C27.98 47.893 28.56 47.4308 28.8 46.7434L29.59 44.4323C29.78 43.8753 29.46 43.2471 28.95 43.176L23.29 42.4412C23.03 42.4175 22.79 42.3108 22.59 42.1449L22.27 41.896" stroke="black" stroke-width="2" stroke-linecap="round" stroke-linejoin="round"/>
<path d="M33.5999 43.3184H45.3899" stroke="black" stroke-width="2" stroke-linecap="round" stroke-linejoin="round"/>
<path d="M47 52.1482V50.6786C47 50.1808 46.66 49.7778 46.25 49.7778H32.75C32.34 49.7778 32 50.1808 32 50.6786V52.1482" stroke="black" stroke-width="2" stroke-linecap="round" stroke-linejoin="round"/>
<path d="M52.27 61.6297C52.62 62.3408 53.26 62.8149 54 62.8149H58C59.04 62.8149 59.9 61.8549 59.99 60.646" stroke="black" stroke-width="2" stroke-linecap="round" stroke-linejoin="round"/>
<path d="M19.01 60.646C19.1 61.8549 19.96 62.8149 21 62.8149H25C25.74 62.8149 26.38 62.3408 26.73 61.6297" stroke="black" stroke-width="2" stroke-linecap="round" stroke-linejoin="round"/>
<path d="M41.46 11.7569L41.18 11.2591L38.14 3.92284C37.67 2.78506 36.74 2.01469 35.69 1.90802C33.15 1.64728 28.25 1.18506 24.5 1.18506C20.75 1.18506 15.85 1.64728 13.31 1.90802C12.26 2.01469 11.33 2.78506 10.86 3.92284L7.82004 11.2591L7.54004 11.7569" stroke="black" stroke-width="2" stroke-linecap="round" stroke-linejoin="round"/>
<path d="M11.0898 14.0088H24.4998H37.9098" stroke="black" stroke-width="2" stroke-linecap="round" stroke-linejoin="round"/>
<path d="M4.58994 9.42188H3.14994C2.50994 9.42188 1.92994 9.82484 1.63994 10.4411L1.16994 11.4485C0.769937 12.3611 1.09994 13.4515 1.92994 13.9019L2.52994 14.2337L5.33994 15.7626L3.77994 18.5597C3.72994 18.6426 3.67994 18.7493 3.63994 18.8322C3.39994 19.3774 3.26994 19.9582 3.26994 20.5745V32.2011C3.26994 33.3389 3.71994 34.4174 4.48994 35.1048L5.49994 36.0174C6.02994 36.4915 6.65994 36.7404 7.30994 36.7404H13.4099" stroke="black" stroke-width="2" stroke-linecap="round" stroke-linejoin="round"/>
<path d="M44.4499 9.42188H45.8499C46.4899 9.42188 47.0699 9.82484 47.3599 10.4411L47.8299 11.4485C48.2299 12.3611 47.8999 13.4515 47.0699 13.9019L46.4699 14.2337L43.6599 15.7626L44.2199 16.7582" stroke="black" stroke-width="2" stroke-linecap="round" stroke-linejoin="round"/>
<path d="M7.27002 27.7451H12.34C12.98 27.7451 13.56 27.2829 13.8 26.5955L14.59 24.2843C14.78 23.7273 14.46 23.0992 13.95 23.028L8.29002 22.2932C8.03002 22.2695 7.79002 22.1629 7.59002 21.9969L7.27002 21.748" stroke="black" stroke-width="2" stroke-linecap="round" stroke-linejoin="round"/>
<path d="M18.5999 23.1704H21.7699" stroke="black" stroke-width="2" stroke-linecap="round" stroke-linejoin="round"/>
<path d="M4.01001 40.4976C4.10001 41.7064 4.96001 42.6665 6.00001 42.6665H10C10.74 42.6665 11.38 42.1924 11.73 41.4813" stroke="black" stroke-width="2" stroke-linecap="round" stroke-linejoin="round"/>
</g>
<defs>
<clipPath id="clip0_1407_239">
<rect width="64" height="64" fill="white"/>
</clipPath>
</defs>
</svg>
